<?xml version="1.0" encoding="utf-8"?>
<!-- Generator: Adobe Illustrator 22.0.0, SVG Export Plug-In . SVG Version: 6.00 Build 0)  -->
<svg version="1.1" id="Layer_1" xmlns="http://www.w3.org/2000/svg" xmlns:xlink="http://www.w3.org/1999/xlink" x="0px" y="0px"
	 viewBox="0 0 60 60" style="enable-background:new 0 0 60 60;" xml:space="preserve">
<style type="text/css">
	.st0{fill:#00A0DF;}
</style>
<path class="st0" d="M23.3,32.8c0-1.3-0.3-2.3-1.1-3c-0.6-0.6-1.4-0.9-2.7-1.1l-1.7-0.3c-0.6-0.1-1-0.3-1.3-0.5
	c-0.3-0.3-0.4-0.6-0.4-1c0-1,0.7-1.8,2.2-1.8c0.9,0,2,0.1,2.9,1l1.8-1.7c-1.2-1.2-2.6-1.7-4.6-1.7c-3.1,0-5,1.8-5,4.3
	c0,1.2,0.3,2.1,1,2.8c0.6,0.6,1.5,1,2.8,1.2l1.7,0.3c0.7,0.1,1,0.2,1.3,0.5c0.3,0.3,0.4,0.7,0.4,1.2c0,1.1-0.9,1.8-2.5,1.8
	c-1.3,0-2.5-0.3-3.4-1.2l-1.8,1.8c1.4,1.4,3,1.9,5.2,1.9C21,37.1,23.3,35.6,23.3,32.8z M36.9,37l-5.2-14.2h-2.2L24.4,37h2.9l0.9-2.5
	h5.1L34,37H36.9z M32.4,32.1h-3.5l1.8-5.2L32.4,32.1z M48.9,27.2c0-2.4-1.7-4.4-4.7-4.4h-5.5V37h2.8v-5.4h2.7
	C47.1,31.6,48.9,29.6,48.9,27.2z M46.1,27.2c0,1.2-0.8,1.9-2.1,1.9h-2.6v-3.9H44C45.3,25.2,46.1,26,46.1,27.2z"/>
</svg>
