<?xml version="1.0" encoding="utf-8"?>
<!-- Generator: Adobe Illustrator 22.0.0, SVG Export Plug-In . SVG Version: 6.00 Build 0)  -->
<svg version="1.1" id="Layer_1" xmlns="http://www.w3.org/2000/svg" xmlns:xlink="http://www.w3.org/1999/xlink" x="0px" y="0px"
	 viewBox="0 0 60 60" style="enable-background:new 0 0 60 60;" xml:space="preserve">
<style type="text/css">
	.st0{clip-path:url(#SVGID_1_);}
	.st1{fill:#139CD8;}
	.st2{fill:#FFFFFF;}
</style>
<g>
	<defs>
		<rect id="SVGID_3_" x="12" y="18" width="37" height="26"/>
	</defs>
	<clipPath id="SVGID_1_">
		<use xlink:href="#SVGID_3_"  style="overflow:visible;"/>
	</clipPath>
	<g class="st0">
		<path class="st1" d="M27.4,20.8c0.6-0.6,1.3-1.1,2.1-1.5c0.8-0.3,1.7-0.5,2.6-0.5c2.4,0,4.6,1.4,5.7,3.4c1-0.5,2.1-0.7,3.2-0.7
			c4.4,0,8,3.6,8,8.1s-3.6,8.1-8,8.1c-0.5,0-1.1-0.1-1.6-0.2c-0.7,1.3-1.9,2.3-3.3,2.7c-1.4,0.4-3,0.3-4.3-0.3
			c-0.5,1.2-1.4,2.3-2.5,3c-1.1,0.7-2.4,1.1-3.8,1.1c-1.3,0-2.6-0.5-3.7-1.2c-1.1-0.8-1.9-1.9-2.4-3.1c-0.4,0.1-0.8,0.1-1.3,0.1
			c-3.4,0-6.2-2.8-6.2-6.3c0-1.1,0.3-2.2,0.8-3.1c0.5-1,1.3-1.7,2.3-2.3c-0.7-1.6-0.8-3.4-0.2-5.1c0.5-1.7,1.7-3.1,3.2-4
			c1.5-0.9,3.3-1.2,5-0.9C24.8,18.5,26.3,19.4,27.4,20.8"/>
		<path class="st2" d="M17.4,31.5C17.3,31.5,17.4,31.6,17.4,31.5c0.1,0.1,0.2,0.2,0.2,0.2c0.3,0.2,0.7,0.3,1.1,0.3
			c0.8,0,1.2-0.4,1.2-1.1v0c0-0.6-0.5-0.8-1-1l-0.1,0c-0.4-0.1-0.7-0.2-0.7-0.5v0c0-0.2,0.2-0.4,0.5-0.4c0.3,0,0.7,0.1,1,0.2
			c0,0,0.1,0,0.1,0c0,0,0.1-0.4,0.2-0.4c0,0,0,0,0,0c0,0,0,0,0,0c-0.3-0.2-0.7-0.3-1.1-0.3h-0.1c-0.7,0-1.2,0.4-1.2,1v0
			c0,0.6,0.5,0.8,1,1l0.1,0c0.4,0.1,0.7,0.2,0.7,0.5v0c0,0.2-0.2,0.4-0.5,0.4c-0.3,0-0.7-0.1-1-0.3c-0.1,0-0.1-0.1-0.1-0.1
			c0,0,0,0,0,0c0,0,0,0,0,0s0,0,0,0c0,0,0,0,0,0L17.4,31.5z"/>
		<path class="st2" d="M28.5,31.5C28.4,31.5,28.5,31.6,28.5,31.5c0.4,0.3,0.9,0.5,1.3,0.5c0.8,0,1.2-0.4,1.2-1.1v0
			c0-0.6-0.5-0.8-1-1l-0.1,0c-0.4-0.1-0.7-0.2-0.7-0.5v0c0-0.2,0.2-0.4,0.5-0.4c0.3,0,0.7,0.1,1,0.2c0,0,0.1,0,0.1,0l0.2-0.4
			c0,0,0,0,0,0c0,0,0,0,0,0c-0.3-0.2-0.7-0.3-1.1-0.3h-0.1c-0.7,0-1.2,0.4-1.2,1v0c0,0.6,0.5,0.8,1,1l0.1,0c0.4,0.1,0.7,0.2,0.7,0.5
			v0c0,0.2-0.2,0.4-0.5,0.4c-0.3,0-0.7-0.1-1-0.3c-0.1,0-0.1-0.1-0.1-0.1c0,0,0,0,0,0s0,0,0,0c0,0,0,0,0,0c0,0,0,0,0,0L28.5,31.5z"
			/>
		<path class="st2" d="M36.7,29.5c-0.1-0.2-0.2-0.4-0.3-0.6c-0.1-0.2-0.3-0.3-0.5-0.4c-0.2-0.1-0.4-0.1-0.7-0.1s-0.5,0-0.7,0.1
			c-0.2,0.1-0.4,0.2-0.5,0.4c-0.1,0.2-0.2,0.4-0.3,0.6c-0.1,0.4-0.1,0.9,0,1.4c0.1,0.2,0.2,0.4,0.3,0.6c0.1,0.2,0.3,0.3,0.5,0.4
			c0.4,0.2,0.9,0.2,1.4,0c0.2-0.1,0.4-0.2,0.5-0.4c0.1-0.2,0.2-0.4,0.3-0.6C36.8,30.4,36.8,30,36.7,29.5z M36.1,30.2
			c0,0.4-0.1,0.7-0.2,0.9c-0.1,0.2-0.3,0.3-0.6,0.3s-0.5-0.1-0.6-0.3c-0.1-0.2-0.2-0.5-0.2-0.9c0-0.4,0.1-0.7,0.2-0.9
			c0.1-0.2,0.3-0.3,0.6-0.3s0.5,0.1,0.6,0.3C36,29.5,36.1,29.8,36.1,30.2z"/>
		<path class="st2" d="M41.9,31.3C41.9,31.3,41.9,31.3,41.9,31.3C41.9,31.2,41.9,31.2,41.9,31.3C41.9,31.2,41.8,31.2,41.9,31.3
			C41.8,31.2,41.8,31.2,41.9,31.3c-0.2,0-0.3,0-0.4,0c-0.1,0-0.2,0-0.3,0c-0.3,0-0.6-0.1-0.7-0.3c-0.2-0.2-0.3-0.5-0.3-0.9
			c0-0.4,0.1-0.6,0.2-0.8c0.2-0.2,0.4-0.3,0.7-0.3c0.2,0,0.5,0,0.7,0.1c0,0,0,0,0.1,0c0.1-0.2,0.1-0.3,0.2-0.4c0,0,0,0,0,0
			c0,0,0,0,0,0c0,0,0,0,0,0c0,0,0,0,0,0c-0.1,0-0.3-0.1-0.4-0.1c-0.2,0-0.3,0-0.5,0c-0.2,0-0.5,0-0.7,0.1c-0.2,0.1-0.4,0.2-0.5,0.4
			c-0.1,0.2-0.2,0.3-0.3,0.6c-0.1,0.2-0.1,0.5-0.1,0.7c0,0.5,0.1,1,0.4,1.3c0.3,0.3,0.7,0.5,1.3,0.5c0.3,0,0.6-0.1,0.9-0.2
			c0,0,0,0,0,0c0,0,0,0,0,0L41.9,31.3z"/>
		<path class="st2" d="M45.1,29.4c-0.1-0.2-0.1-0.4-0.3-0.5c-0.1-0.1-0.3-0.2-0.4-0.3c-0.2-0.1-0.4-0.1-0.6-0.1
			c-0.2,0-0.5,0-0.7,0.1c-0.2,0.1-0.4,0.2-0.5,0.4c-0.1,0.2-0.2,0.4-0.3,0.6c-0.1,0.2-0.1,0.5-0.1,0.7c0,0.2,0,0.5,0.1,0.7
			c0.1,0.2,0.2,0.4,0.3,0.6c0.1,0.2,0.3,0.3,0.5,0.4c0.2,0.1,0.5,0.1,0.8,0.1c0.6,0,0.9-0.1,1.1-0.2c0,0,0,0,0-0.1l-0.1-0.4
			c0,0,0,0,0,0c0,0,0,0,0,0c0,0,0,0,0,0c0,0,0,0,0,0c-0.3,0.1-0.6,0.2-0.9,0.2c-0.3,0-0.6-0.1-0.7-0.2C43.1,31,43,30.7,43,30.4h2.1
			c0,0,0,0,0,0c0,0,0,0,0,0C45.2,30,45.2,29.7,45.1,29.4L45.1,29.4z M43,29.9c0-0.2,0.1-0.4,0.2-0.5c0.1-0.1,0.2-0.2,0.3-0.2
			c0.1-0.1,0.2-0.1,0.3-0.1c0.1,0,0.2,0,0.3,0.1c0.1,0.1,0.2,0.1,0.3,0.2c0.1,0.2,0.1,0.3,0.1,0.5L43,29.9z"/>
		<path class="st2" d="M28,29.4c-0.1-0.2-0.1-0.4-0.3-0.5c-0.1-0.1-0.3-0.2-0.4-0.3c-0.2-0.1-0.4-0.1-0.6-0.1c-0.2,0-0.5,0-0.7,0.1
			c-0.2,0.1-0.4,0.2-0.5,0.4c-0.1,0.2-0.2,0.4-0.3,0.6c-0.1,0.2-0.1,0.5-0.1,0.7c0,0.2,0,0.5,0.1,0.7c0.1,0.2,0.2,0.4,0.3,0.6
			c0.1,0.2,0.3,0.3,0.5,0.4c0.2,0.1,0.5,0.1,0.8,0.1c0.6,0,0.9-0.1,1.1-0.2c0,0,0,0,0-0.1l-0.1-0.4c0,0,0,0,0,0c0,0,0,0,0,0
			c0,0,0,0,0,0c0,0,0,0,0,0c-0.3,0.1-0.6,0.2-0.9,0.2c-0.3,0-0.6-0.1-0.7-0.2c-0.2-0.2-0.2-0.4-0.2-0.7H28c0,0,0,0,0,0s0,0,0,0
			C28.1,30,28,29.7,28,29.4L28,29.4z M25.8,29.9c0-0.2,0.1-0.4,0.2-0.5c0.1-0.1,0.2-0.2,0.3-0.2c0.1-0.1,0.2-0.1,0.3-0.1
			c0.1,0,0.2,0,0.3,0.1c0.1,0.1,0.2,0.1,0.3,0.2c0.1,0.2,0.1,0.3,0.1,0.5L25.8,29.9z"/>
		<path class="st2" d="M22,29.7c-0.1,0-0.2,0-0.3,0c-0.2,0-0.4,0-0.5,0.1c-0.2,0-0.3,0.1-0.4,0.2c-0.1,0.1-0.2,0.2-0.3,0.4
			c-0.1,0.2-0.1,0.3-0.1,0.5c0,0.2,0,0.3,0.1,0.5c0.1,0.1,0.2,0.2,0.3,0.3c0.1,0.1,0.3,0.2,0.4,0.2c0.2,0,0.4,0.1,0.6,0.1
			c0.2,0,0.4,0,0.7-0.1c0.2,0,0.5-0.1,0.5-0.1c0.1,0,0.2,0,0.2,0c0,0,0,0,0,0c0,0,0,0,0,0v-2c0-0.4-0.1-0.7-0.3-1
			c-0.2-0.2-0.6-0.3-1-0.3c-0.2,0-0.4,0-0.6,0.1c0,0-0.5,0.1-0.7,0.2c0,0,0,0,0,0c0,0,0,0,0,0l0.2,0.4c0,0,0,0,0,0c0,0,0,0,0,0
			c0,0,0,0,0,0c0,0,0,0,0,0c0,0,0,0,0,0c0.4-0.2,0.9-0.2,0.9-0.2c0.2,0,0.4,0,0.5,0.1c0.1,0.1,0.2,0.2,0.2,0.5v0.1
			C22.2,29.8,22,29.7,22,29.7L22,29.7z M21.2,31.3c-0.1,0-0.1-0.1-0.1-0.1C21,31,21,31,21,30.9c0-0.1,0-0.2,0-0.2
			c0-0.1,0.1-0.1,0.1-0.2c0,0,0.2-0.2,0.6-0.2c0.2,0,0.4,0,0.6,0.1v1c-0.2,0-0.4,0.1-0.6,0.1C21.4,31.4,21.2,31.3,21.2,31.3"/>
		<path class="st2" d="M39.3,28.6C39.3,28.6,39.3,28.6,39.3,28.6C39.3,28.6,39.3,28.6,39.3,28.6C39.3,28.6,39.3,28.6,39.3,28.6
			C39.3,28.6,39.3,28.6,39.3,28.6c-0.1-0.1-0.3-0.1-0.4-0.1c-0.2,0-0.4,0-0.6,0.1c-0.1,0.1-0.3,0.2-0.4,0.3v-0.3c0,0,0,0,0,0
			c0,0,0,0,0,0c0,0,0,0,0,0s0,0,0,0h-0.5c0,0,0,0,0,0c0,0,0,0,0,0c0,0,0,0,0,0c0,0,0,0,0,0v3.2c0,0,0,0,0,0c0,0,0,0,0,0c0,0,0,0,0,0
			s0,0,0,0H38c0,0,0,0,0,0c0,0,0,0,0,0v-1.6c0-0.2,0-0.4,0.1-0.6c0-0.1,0.1-0.2,0.2-0.3c0.1-0.1,0.2-0.1,0.3-0.2c0.1,0,0.2,0,0.3,0
			c0.1,0,0.2,0,0.2,0c0,0,0.1,0,0.1-0.1C39.2,29,39.3,28.7,39.3,28.6"/>
		<path class="st2" d="M34.1,27.2c-0.1,0-0.1,0-0.2-0.1c-0.1,0-0.2,0-0.3,0c-0.4,0-0.7,0.1-0.9,0.3c-0.2,0.2-0.4,0.5-0.4,1l0,0.1
			h-0.5c0,0,0,0,0,0c0,0,0,0,0,0L31.5,29c0,0,0,0.1,0.1,0.1h0.5l-0.5,2.7c0,0.2-0.1,0.4-0.1,0.5c0,0.1-0.1,0.2-0.1,0.3
			c0,0.1-0.1,0.1-0.2,0.2c-0.1,0-0.2,0-0.2,0c-0.1,0-0.1,0-0.2,0c0,0-0.1,0-0.1,0c0,0,0,0,0,0c0,0,0,0,0,0c0,0,0,0,0,0c0,0,0,0,0,0
			c0,0-0.1,0.4-0.2,0.4c0,0,0,0,0,0c0,0,0,0,0,0c0.1,0,0.1,0,0.2,0.1c0.1,0,0.2,0,0.3,0c0.2,0,0.4,0,0.5-0.1
			c0.2-0.1,0.3-0.2,0.4-0.3c0.1-0.1,0.2-0.3,0.3-0.5c0.1-0.2,0.1-0.5,0.2-0.7l0.5-2.7h0.7c0,0,0,0,0,0c0,0,0,0,0,0l0.1-0.4
			c0,0,0-0.1-0.1-0.1h-0.7c0-0.2,0.1-0.3,0.1-0.5c0-0.1,0.1-0.2,0.2-0.2c0-0.1,0.1-0.1,0.2-0.1c0.1,0,0.2,0,0.2,0c0.1,0,0.1,0,0.2,0
			c0.1,0,0.1,0,0.1,0c0.1,0,0.1,0,0.1,0L34.1,27.2C34.1,27.2,34.1,27.2,34.1,27.2C34.1,27.2,34.1,27.2,34.1,27.2
			C34.1,27.2,34.1,27.2,34.1,27.2C34.1,27.2,34.1,27.1,34.1,27.2"/>
		<path class="st2" d="M24.5,31.8C24.5,31.8,24.5,31.8,24.5,31.8C24.5,31.8,24.5,31.8,24.5,31.8C24.4,31.9,24.4,31.9,24.5,31.8
			C24.4,31.9,24.4,31.9,24.5,31.8l-0.6,0.1c0,0,0,0,0,0c0,0,0,0,0,0c0,0,0,0,0,0c0,0,0,0,0,0v-4.6c0,0,0,0,0,0c0,0,0,0,0,0
			c0,0,0,0,0,0c0,0,0,0,0,0h0.6c0,0,0,0,0,0c0,0,0,0,0,0c0,0,0,0,0,0c0,0,0,0,0,0V31.8z"/>
	</g>
</g>
</svg>
