<?xml version="1.0" encoding="utf-8"?>
<!-- Generator: Adobe Illustrator 22.0.0, SVG Export Plug-In . SVG Version: 6.00 Build 0)  -->
<svg version="1.1" id="Layer_1" xmlns="http://www.w3.org/2000/svg" xmlns:xlink="http://www.w3.org/1999/xlink" x="0px" y="0px"
	 viewBox="0 0 60 60" style="enable-background:new 0 0 60 60;" xml:space="preserve">
<style type="text/css">
	.st0{fill:#FEFEFE;}
	.st1{fill:#C1DCFF;}
	.st2{fill:#DEECFF;}
	.st3{fill:#2684FF;}
	.st4{fill:#2380FB;}
	.st5{fill:#1D78F3;}
	.st6{fill:#207CF7;}
	.st7{fill:#1A74EF;}
	.st8{fill:#1770EB;}
	.st9{fill:#0F66E0;}
	.st10{fill:#0D63DD;}
	.st11{fill:#095ED8;}
	.st12{fill:#126AE4;}
	.st13{fill:#146CE7;}
	.st14{fill:#065AD4;}
	.st15{fill:#0052CC;}
	.st16{fill:#0356D0;}
	.st17{fill:#136BE6;}
	.st18{fill:#1066E1;}
	.st19{fill:#156EE9;}
	.st20{fill:#0C62DC;}
	.st21{fill:#095ED9;}
</style>
<g id="BIaRr5_1_">
	<g>
		<g>
			<path class="st0" d="M29.8,44c-4.6,0-9.2,0-13.8,0c0-9,0-18,0-27c9,0,18,0,27,0c0,9,0,18,0,27c-4.3,0-8.6,0-12.9,0c0,0,0,0,0,0
				c0-0.1,0-0.1,0-0.2c0-3.7,0-7.5,0-11.2c0-0.1,0-0.1,0-0.2c-0.1-0.4-0.3-0.7-0.7-0.9c-0.1,0-0.1,0-0.2,0c-0.4,0-0.9,0-1.3,0
				c-0.2,0-0.5,0-0.7,0c-0.3,0-0.5,0-0.8,0c-0.3,0-0.5,0-0.8,0c-0.2,0-0.5,0-0.7,0c-0.2,0-0.4,0-0.7,0c-0.2,0-0.3,0-0.5,0
				c-0.1,0-0.1,0-0.2,0c0,0-0.1,0-0.1,0c-0.1,0-0.3,0-0.4,0c-0.2,0-0.5,0-0.7,0c-0.2,0-0.5,0-0.7,0c-0.2,0-0.5,0-0.7,0
				c-0.2,0-0.5,0-0.7,0c-0.2,0-0.4,0-0.7,0c-0.6,0-1.2,0-1.8,0c-0.1,0-0.1,0-0.1,0.1c0,0.5,0.1,1,0.3,1.5c0.2,0.6,0.5,1.1,0.9,1.6
				c0.4,0.5,0.9,0.9,1.5,1.3c0.6,0.3,1.3,0.6,2,0.6c0.1,0,0.3,0,0.4,0c0.6,0,1.3,0,1.9,0c0.1,0,0.2,0,0.2,0c0.1,0,0.2,0,0.2,0.2
				c0,0.1,0,0.2,0,0.3c0,0.7,0,1.4,0,2c0,0.6,0.2,1.2,0.4,1.8c0.3,0.6,0.7,1.2,1.2,1.7c0.7,0.6,1.5,1.1,2.4,1.3
				c0.3,0.1,0.5,0.1,0.8,0.1C29.7,44,29.8,44,29.8,44C29.8,44,29.8,44,29.8,44z"/>
			<path class="st1" d="M30.1,44C30.1,44,30.1,44,30.1,44c-0.1,0-0.1,0-0.2,0c0,0,0,0,0,0C30,44,30,44,30.1,44z"/>
			<path class="st2" d="M29.9,44C29.9,44,29.9,44,29.9,44c0,0-0.1,0-0.1,0c0,0,0,0,0,0C29.9,44,29.9,44,29.9,44z"/>
			<path class="st3" d="M34.9,19.9c1.9,0,3.8,0,5.7,0c0.4,0,0.7,0.2,0.9,0.5c0.1,0.2,0.1,0.3,0.1,0.5c0,0,0,0.1,0,0.1
				c0,3.8,0,7.5,0,11.3c0,0.2,0,0.1-0.1,0.1c-1.1,0-2.2-0.4-3.1-1.1c-1-0.8-1.7-1.9-1.9-3.2c-0.1-0.3-0.1-0.7-0.1-1
				c0-0.6,0-1.3,0-1.9c0-0.1,0-0.1-0.1-0.1c-0.7,0-1.3,0-2,0c-0.5,0-1-0.1-1.5-0.2c-0.9-0.3-1.6-0.7-2.3-1.3
				c-0.7-0.7-1.2-1.5-1.4-2.5C29,20.8,29,20.4,29,20c0-0.1,0-0.1,0.1-0.1c0.5,0,0.9,0,1.4,0C31.9,19.9,33.4,19.9,34.9,19.9z"/>
			<path class="st3" d="M35.8,29.1c0,0,0,0.1,0,0.1c0,3,0,5.9,0,8.9c0,0.1,0,0.1-0.1,0.1c-0.6,0-1.1-0.1-1.7-0.3
				c-1.6-0.6-2.7-1.8-3.2-3.5c-0.1-0.4-0.2-0.9-0.2-1.4c0-0.7,0-1.3,0-2c0,0,0-0.1,0-0.1c0,0,0-0.1-0.1-0.1c0,0-0.1,0-0.1,0
				c-0.7,0-1.3,0-2,0c-1,0-1.8-0.2-2.6-0.7c-1.2-0.7-2-1.8-2.4-3.2c-0.1-0.4-0.2-0.8-0.2-1.2c0-0.1,0-0.1,0.1-0.1c1.5,0,2.9,0,4.4,0
				c0,0,0,0,0.1,0c0,0,0,0,0,0c0,0,0,0,0,0c-0.2,0-0.4,0-0.6,0c-0.2,0-0.4,0-0.6,0c-0.2,0-0.4,0-0.6,0c0,0.1,0.1,0.1,0.1,0.1
				c0.3,0.2,0.5,0.5,0.7,0.7c0.4,0.4,0.9,0.8,1.3,1.3c0.3,0.3,0.7,0.6,1,0.9c0.4,0.3,0.7,0.7,1.1,1c0.3,0.3,0.7,0.6,1,1
				c0.4,0.3,0.7,0.7,1.1,1c0.3,0.3,0.7,0.6,1,1c0.5,0.5,1.1,1,1.6,1.5c0.3,0.3,0.7,0.6,1,0.9c0,0,0,0,0.1,0.1c0,0,0,0,0,0
				c0,0,0,0,0-0.1c0-0.2,0-0.4,0-0.5c0-0.2,0-0.4,0-0.6c0-0.2,0-0.4,0-0.6c0-0.2,0-0.4,0-0.6c0-0.2,0-0.3,0-0.5c0-0.1,0-0.3,0-0.4
				c0-0.2,0-0.4,0-0.6c0-0.2,0-0.5,0-0.7c0-0.2,0-0.4,0-0.6c0-0.2,0-0.4,0-0.7C35.8,29.3,35.8,29.2,35.8,29.1
				C35.8,29.1,35.8,29.1,35.8,29.1z"/>
			<path class="st3" d="M24.5,36.7c0,0-0.1,0-0.1,0c-0.5,0-1.1,0-1.6,0c-1.1,0-2.1-0.3-3-1c-0.8-0.6-1.4-1.3-1.8-2.2
				c-0.2-0.5-0.4-1-0.4-1.6c0-0.1,0-0.3,0-0.4c0-0.1,0-0.1,0.1-0.1c0,0,0,0,0.1,0c0.6,0,1.1,0,1.7,0c0,0,0.1,0,0.1,0
				c0.1,0.1,0.1,0.1,0.2,0.2c0.6,0.6,1.1,1.1,1.7,1.7c0.4,0.4,0.9,0.9,1.3,1.3c0.4,0.5,0.9,0.9,1.3,1.4
				C24.1,36.3,24.3,36.4,24.5,36.7C24.5,36.6,24.5,36.7,24.5,36.7z"/>
			<path class="st3" d="M29.9,44c0,0-0.1,0-0.1,0c-0.4,0-0.8-0.1-1.2-0.2c-0.7-0.2-1.4-0.6-2-1.1c-0.9-0.8-1.5-1.8-1.7-3
				c-0.1-0.3-0.1-0.6-0.1-0.9c0-0.5,0-1.1,0-1.6c0,0,0-0.1,0-0.1c0.1,0,0.1,0,0.1,0c0.1,0.1,0.2,0.3,0.4,0.4
				c0.8,0.8,1.6,1.6,2.4,2.4c0.5,0.5,0.9,0.9,1.4,1.4c0.3,0.3,0.5,0.5,0.8,0.8c0,0,0.1,0.1,0.1,0.1c0-0.2,0-0.5,0-0.7
				c0-0.2,0-0.4,0-0.7c0-0.3,0-0.5,0-0.8c0-0.2,0-0.5,0-0.7c0-0.2,0-0.5,0-0.7c0-0.1,0-0.3,0-0.4c0,0,0-0.1,0-0.1c0-0.1,0-0.1,0-0.2
				c0-0.2,0-0.3,0-0.5c0-0.2,0-0.4,0-0.7c0-0.2,0-0.5,0-0.7c0-0.3,0-0.5,0-0.8c0-0.3,0-0.5,0-0.8c0-0.2,0-0.5,0-0.7
				c0-0.4,0-0.9,0-1.3c0,0,0-0.1,0-0.1c0,0.1,0,0.1,0,0.2c0,2.3,0,4.5,0,6.8c0,1.5,0,3.1,0,4.6C30,44,30,44,29.9,44z"/>
			<path class="st4" d="M30.1,41.6c0,0.2,0,0.5,0,0.7c-0.1,0-0.1,0-0.1-0.1c-0.2-0.2-0.5-0.5-0.7-0.7c-0.4-0.4-0.9-0.8-1.3-1.3
				c-0.4-0.5-0.9-0.9-1.4-1.4c-0.4-0.4-0.8-0.9-1.3-1.3c-0.1-0.1-0.3-0.3-0.4-0.4c0,0,0-0.1-0.1-0.1c0-0.1,0-0.2,0-0.3
				c0-0.1,0-0.1-0.1-0.1c-0.1,0-0.2,0-0.3,0c0,0-0.1-0.1-0.1-0.1c-0.6-0.6-1.1-1.1-1.7-1.7c-0.4-0.4-0.9-0.9-1.3-1.3
				c-0.4-0.5-0.9-0.9-1.4-1.4c-0.2-0.2-0.4-0.4-0.6-0.6c0,0-0.1-0.1,0-0.1c0.2,0,0.5,0,0.7,0c0.3,0.3,0.7,0.7,1,1
				c0.2,0.2,0.3,0.3,0.5,0.5c0.7,0.7,1.4,1.4,2.1,2.1c0.4,0.4,0.9,0.9,1.3,1.3c0.4,0.5,0.9,0.9,1.3,1.4c0.4,0.5,0.9,0.9,1.3,1.3
				c0.4,0.5,0.9,0.9,1.3,1.3C29.3,40.9,29.7,41.2,30.1,41.6z"/>
			<path class="st5" d="M30.1,40.2c0,0.3,0,0.5,0,0.8c0,0-0.1,0-0.1,0c-0.3-0.3-0.6-0.6-0.9-0.9c0,0,0-0.1-0.1-0.1
				c-0.8-0.8-1.6-1.6-2.4-2.5c-0.4-0.4-0.9-0.9-1.3-1.3c-0.4-0.5-0.9-0.9-1.3-1.3c-0.4-0.5-0.9-0.9-1.3-1.3
				c-0.4-0.5-0.9-0.9-1.3-1.3c-0.1-0.2-0.3-0.3-0.4-0.5c0,0-0.1-0.1,0-0.1c0.2,0,0.5,0,0.7,0c0.3,0.4,0.7,0.7,1,1.1
				c0.1,0.1,0.2,0.2,0.3,0.3c0.8,0.7,1.5,1.5,2.2,2.3c0.4,0.4,0.9,0.9,1.3,1.3c0.4,0.5,0.9,0.9,1.4,1.4c0.4,0.4,0.9,0.9,1.3,1.3
				C29.4,39.5,29.7,39.8,30.1,40.2z"/>
			<path class="st6" d="M20.8,31.5C20.8,31.5,20.8,31.5,20.8,31.5c0.3,0.3,0.5,0.6,0.8,0.8c0.2,0.2,0.5,0.5,0.7,0.7
				c0.5,0.5,1,1,1.5,1.5c0.4,0.4,0.9,0.9,1.3,1.3c0.4,0.5,0.9,0.9,1.3,1.4c0.4,0.5,0.9,0.9,1.3,1.3c0.4,0.5,0.9,0.9,1.3,1.4
				c0.3,0.3,0.6,0.6,0.9,0.9c0,0,0.1,0.1,0.1,0.1c0,0.2,0,0.5,0,0.7c0,0-0.1,0-0.1-0.1c-0.3-0.3-0.6-0.6-0.9-0.9
				c-0.4-0.5-0.9-0.9-1.3-1.3c-0.4-0.5-0.9-0.9-1.3-1.4c-0.4-0.5-0.9-0.9-1.3-1.3c-0.4-0.5-0.9-0.9-1.3-1.3
				c-0.4-0.5-0.9-0.9-1.3-1.3c-0.4-0.5-0.9-0.9-1.3-1.3c-0.3-0.4-0.7-0.7-1-1.1c0,0-0.1,0-0.1-0.1C20.3,31.5,20.6,31.5,20.8,31.5z"
				/>
			<path class="st7" d="M30.1,40.2C30,40.2,30,40.1,30.1,40.2c-0.4-0.3-0.6-0.6-0.9-0.9c-0.4-0.5-0.9-0.9-1.3-1.3
				c-0.4-0.5-0.9-0.9-1.3-1.4c-0.4-0.4-0.9-0.9-1.3-1.3c-0.4-0.5-0.9-0.9-1.3-1.4c-0.4-0.5-0.9-0.9-1.3-1.3c-0.3-0.3-0.7-0.7-1-1
				c0,0-0.1,0-0.1-0.1c0.2,0,0.5,0,0.7,0c0.3,0.3,0.6,0.6,0.9,0.9c0,0,0.1,0.1,0.1,0.1c0.3,0.3,0.6,0.6,0.9,0.9c0.5,0.5,1,1,1.5,1.6
				c0.4,0.4,0.9,0.9,1.3,1.3c0.4,0.5,0.9,0.9,1.3,1.4c0.4,0.5,0.9,0.9,1.3,1.3c0.1,0.2,0.3,0.3,0.4,0.5
				C30.1,39.7,30.1,39.9,30.1,40.2z"/>
			<path class="st8" d="M30.1,39.4c0,0-0.1,0-0.1-0.1c-0.5-0.5-1-1-1.5-1.5c-0.3-0.3-0.6-0.6-0.9-0.9c-0.6-0.6-1.2-1.2-1.7-1.8
				c-0.4-0.4-0.9-0.9-1.3-1.3c-0.4-0.5-0.9-0.9-1.3-1.3c-0.3-0.3-0.6-0.6-0.9-0.9c0,0-0.1-0.1-0.1-0.1c0.2,0,0.5,0,0.7,0
				c0.2,0.2,0.5,0.5,0.7,0.7c0.5,0.5,1,1,1.6,1.6c0.4,0.4,0.9,0.9,1.3,1.3c0.4,0.5,0.9,0.9,1.3,1.4c0.4,0.4,0.9,0.9,1.3,1.3
				c0.3,0.3,0.6,0.6,0.9,0.9c0,0,0,0,0,0C30.1,39,30.1,39.2,30.1,39.4z"/>
			<path class="st9" d="M30.1,36.8c0,0.2,0,0.4,0,0.7c0,0-0.1,0-0.1,0c-0.4-0.4-0.8-0.8-1.2-1.2c-0.1-0.2-0.3-0.3-0.4-0.4
				c-0.7-0.7-1.4-1.4-2.1-2.1c-0.4-0.4-0.9-0.9-1.3-1.3c-0.2-0.3-0.5-0.5-0.8-0.8c0,0-0.1-0.1-0.1-0.1c0.2,0,0.4,0,0.7,0
				c0.3,0.3,0.6,0.7,1,1c0.8,0.8,1.5,1.5,2.3,2.3c0.4,0.4,0.9,0.9,1.3,1.3C29.6,36.3,29.8,36.6,30.1,36.8z"/>
			<path class="st10" d="M30.1,36.8C30,36.8,30,36.8,30.1,36.8c-0.3-0.2-0.4-0.4-0.6-0.6c-0.4-0.5-0.9-0.9-1.3-1.3
				c-0.4-0.5-0.9-0.9-1.3-1.4c-0.4-0.5-0.9-0.9-1.3-1.3c-0.2-0.2-0.4-0.5-0.7-0.7c0,0,0,0,0-0.1c0.2,0,0.5,0,0.7,0
				c0.1,0.1,0.2,0.2,0.3,0.3c0.7,0.7,1.3,1.4,2,2c0.4,0.4,0.9,0.9,1.3,1.3c0.3,0.3,0.6,0.6,0.9,1C30.1,36.4,30.1,36.6,30.1,36.8z"/>
			<path class="st11" d="M30.1,36.1C30,36.1,30,36.1,30.1,36.1c-0.3-0.3-0.6-0.5-0.8-0.8c-0.4-0.5-0.9-0.9-1.3-1.3
				c-0.4-0.5-0.9-0.9-1.3-1.4c-0.3-0.4-0.7-0.7-1-1c0,0-0.1-0.1-0.1-0.1c0.3,0,0.5,0,0.8,0c0.4,0.4,0.8,0.8,1.2,1.2
				c0.5,0.5,1,0.9,1.4,1.4c0.4,0.4,0.8,0.8,1.1,1.2C30.1,35.6,30.1,35.8,30.1,36.1z"/>
			<path class="st12" d="M24.2,31.5c0,0,0,0.1,0.1,0.1c0.4,0.4,0.7,0.8,1.1,1.1c0.1,0.1,0.2,0.2,0.4,0.4c0.6,0.6,1.2,1.2,1.8,1.8
				c0.4,0.4,0.9,0.9,1.3,1.3c0.4,0.4,0.8,0.8,1.2,1.2c0,0,0.1,0.1,0.1,0.1c0,0.2,0,0.3,0,0.5c-0.1,0-0.1,0-0.1-0.1
				c-0.3-0.3-0.5-0.5-0.8-0.8c-0.3-0.3-0.5-0.5-0.8-0.8c-0.5-0.5-0.9-0.9-1.4-1.4c-0.5-0.5-1.1-1.1-1.6-1.6
				c-0.4-0.4-0.9-0.9-1.3-1.3c-0.1-0.1-0.2-0.3-0.3-0.4c0,0-0.1-0.1,0-0.1C23.9,31.5,24,31.5,24.2,31.5z"/>
			<path class="st13" d="M30.1,38.7c0,0-0.1,0-0.1-0.1c-0.2-0.2-0.4-0.4-0.7-0.7c-0.4-0.5-0.9-0.9-1.3-1.3c-0.4-0.5-0.9-0.9-1.3-1.3
				c-0.4-0.5-0.9-0.9-1.3-1.3c-0.4-0.5-0.9-0.9-1.3-1.3c-0.3-0.3-0.7-0.7-1-1c0,0-0.1-0.1-0.1-0.1c0.1,0,0.3,0,0.4,0
				c0.1,0,0.1,0.1,0.1,0.1c0.3,0.3,0.7,0.7,1,1c0.5,0.5,0.9,0.9,1.4,1.4c0.4,0.4,0.8,0.8,1.2,1.2c0.5,0.5,1,1,1.5,1.5
				c0.4,0.4,0.9,0.9,1.3,1.3c0.1,0.1,0.2,0.2,0.3,0.3C30.1,38.4,30.1,38.6,30.1,38.7z"/>
			<path class="st14" d="M30.1,35.3C30,35.3,30,35.3,30.1,35.3c-0.4-0.4-0.7-0.7-1-1c-0.4-0.4-0.9-0.9-1.3-1.3
				c-0.4-0.5-0.9-0.9-1.3-1.4c0,0-0.1-0.1-0.1-0.2c0.3,0,0.5,0,0.8,0c0.6,0.6,1.2,1.3,1.9,1.9c0.4,0.4,0.8,0.8,1.1,1.2
				C30.1,34.8,30.1,35.1,30.1,35.3z"/>
			<path class="st15" d="M35,25.7c0.4,0.1,0.6,0.3,0.8,0.6c0,0.1,0.1,0.2,0.1,0.3c0,0.1,0,0.3,0,0.4c0,0.3,0,0.6,0,0.9
				c0,0,0,0.1-0.1,0c0,0-0.1,0-0.1-0.1c-0.1-0.2-0.3-0.3-0.5-0.4c-0.4-0.4-0.8-0.8-1.3-1.2c-0.2-0.2-0.3-0.3-0.5-0.5
				c0,0-0.1-0.1,0-0.1c0.5,0,0.9,0,1.4,0C34.9,25.7,35,25.7,35,25.7z"/>
			<path class="st15" d="M30.1,32.4c0,0.2,0,0.5,0,0.7c0,0.2,0,0.5,0,0.7c-0.1,0-0.1,0-0.1-0.1c-0.2-0.2-0.5-0.5-0.7-0.8
				c-0.3-0.3-0.7-0.7-1-1c-0.1-0.1-0.2-0.3-0.3-0.4c0,0-0.1-0.1,0-0.1c0.1,0,0.1,0,0.2,0c0.4,0,0.7,0,1.1,0c0.5,0,0.9,0.3,1,0.8
				C30.1,32.3,30.1,32.3,30.1,32.4z"/>
			<path class="st16" d="M27.8,31.5C27.8,31.5,27.8,31.5,27.8,31.5c0.1,0.1,0.2,0.2,0.3,0.3c0.4,0.4,0.8,0.8,1.1,1.1
				c0.2,0.3,0.5,0.5,0.7,0.8c0,0,0.1,0.1,0.1,0.1c0,0.2,0,0.5,0,0.7c0,0-0.1,0-0.1-0.1c-0.3-0.3-0.6-0.6-1-1
				c-0.4-0.5-0.9-0.9-1.3-1.3c-0.2-0.2-0.4-0.4-0.6-0.6c0,0,0,0,0-0.1C27.3,31.5,27.6,31.5,27.8,31.5z"/>
			<path class="st17" d="M23.7,31.5c0,0.1,0,0.1,0.1,0.1c0.5,0.5,1,1,1.5,1.5c0.4,0.5,0.9,0.9,1.3,1.3c0.4,0.5,0.9,0.9,1.3,1.3
				c0.4,0.5,0.9,0.9,1.3,1.3c0.2,0.3,0.5,0.5,0.8,0.8c0,0,0.1,0.1,0.1,0.1c0,0.1,0,0.1,0,0.2c0,0-0.1,0-0.1,0
				c-0.4-0.4-0.8-0.8-1.2-1.2c-0.1-0.2-0.3-0.3-0.4-0.5c-0.7-0.7-1.4-1.4-2.1-2.1c-0.4-0.4-0.9-0.9-1.3-1.3
				c-0.4-0.5-0.9-0.9-1.3-1.4c-0.1-0.1-0.1-0.1-0.1-0.2C23.6,31.5,23.6,31.5,23.7,31.5z"/>
			<path class="st13" d="M23.5,31.5c0,0.1,0.1,0.1,0.1,0.2c0.4,0.4,0.8,0.8,1.1,1.1c0.4,0.5,0.9,0.9,1.4,1.4
				c0.4,0.4,0.8,0.8,1.2,1.2c0.5,0.5,1,1,1.5,1.5c0.4,0.4,0.8,0.8,1.2,1.2c0,0,0.1,0.1,0.1,0.1c0,0,0,0.1,0,0.1
				c-0.1,0-0.1-0.1-0.2-0.1c0-0.1-0.1-0.1-0.1-0.1c-0.3-0.3-0.5-0.5-0.8-0.8c-0.6-0.6-1.1-1.1-1.7-1.7c-0.4-0.4-0.9-0.9-1.3-1.3
				c-0.4-0.5-0.9-0.9-1.3-1.4c-0.4-0.4-0.8-0.8-1.2-1.3c0,0-0.1-0.1-0.1-0.1C23.4,31.5,23.4,31.5,23.5,31.5z"/>
			<path class="st17" d="M35.8,28c0-0.4,0-0.9,0-1.3c0,0,0-0.1,0-0.1c0,0,0,0.1,0,0.1c0,0.8,0,1.6,0,2.4c0,0,0,0,0,0c0,0,0,0,0,0
				l0,0c0,0,0-0.1,0-0.1c0-0.1,0-0.3,0-0.4c0-0.2,0-0.3,0-0.5C35.8,28.1,35.8,28,35.8,28z"/>
			<path class="st14" d="M35,25.7c-0.5,0-1,0-1.5,0c0,0,0,0-0.1,0c-0.2,0-0.3,0-0.5,0c0,0,0,0,0,0c0,0,0.1,0,0.1,0
				c0.6,0,1.3,0,1.9,0C34.9,25.7,35,25.7,35,25.7z"/>
			<path class="st18" d="M32.9,25.7C32.9,25.7,32.9,25.7,32.9,25.7C32.8,25.7,32.8,25.8,32.9,25.7c-0.3,0.1-0.5,0.1-0.8,0.1
				c-0.2,0-0.4,0-0.6,0c0,0,0,0,0,0c0,0,0,0,0,0c0.3,0,0.5,0,0.8,0C32.4,25.7,32.6,25.7,32.9,25.7z"/>
			<path class="st5" d="M27.7,25.7C27.7,25.7,27.7,25.7,27.7,25.7c0.3,0,0.7,0,1,0c0.1,0,0.2,0,0.3,0c0,0,0,0,0,0
				c-0.1,0-0.1,0-0.2,0c-0.2,0-0.3,0-0.5,0c-0.2,0-0.3,0-0.5,0C27.8,25.8,27.8,25.8,27.7,25.7z"/>
			<path class="st7" d="M29.1,25.7C29.1,25.7,29.1,25.7,29.1,25.7c0.2,0,0.4,0,0.7,0c0,0,0,0,0,0c-0.1,0-0.3,0-0.4,0
				C29.2,25.8,29.2,25.8,29.1,25.7z"/>
			<path class="st17" d="M31.4,25.7C31.4,25.7,31.4,25.7,31.4,25.7C31.4,25.7,31.4,25.8,31.4,25.7c-0.2,0.1-0.4,0.1-0.6,0
				c0,0,0,0,0,0C31,25.7,31.2,25.7,31.4,25.7z"/>
			<path class="st8" d="M29.8,25.7C29.8,25.7,29.8,25.7,29.8,25.7c0.2,0,0.4,0,0.5,0c0,0,0,0,0,0c-0.1,0-0.2,0-0.3,0
				C29.9,25.8,29.8,25.8,29.8,25.7z"/>
			<path class="st19" d="M30.3,25.7C30.3,25.7,30.3,25.7,30.3,25.7c0.2,0,0.3,0,0.5,0c0,0,0,0,0,0c0,0,0,0,0,0
				C30.6,25.8,30.4,25.8,30.3,25.7z"/>
			<path class="st4" d="M35.8,34.8c0,0.2,0,0.4,0,0.6c-0.1,0-0.1,0-0.1-0.1c-0.2-0.3-0.5-0.5-0.8-0.7c-0.2-0.2-0.4-0.4-0.7-0.6
				c-0.2-0.2-0.3-0.3-0.5-0.5c-0.2-0.2-0.3-0.3-0.5-0.5c-0.2-0.2-0.3-0.3-0.5-0.5c-0.2-0.2-0.3-0.3-0.5-0.5
				c-0.2-0.2-0.3-0.3-0.5-0.5c-0.2-0.2-0.3-0.3-0.5-0.5c-0.2-0.2-0.3-0.3-0.5-0.5c-0.2-0.2-0.3-0.3-0.5-0.5
				c-0.2-0.2-0.3-0.3-0.5-0.5c-0.2-0.2-0.3-0.3-0.5-0.5c-0.2-0.2-0.3-0.3-0.5-0.5c-0.2-0.2-0.3-0.3-0.5-0.5
				c-0.2-0.2-0.3-0.3-0.5-0.5c-0.2-0.2-0.3-0.3-0.5-0.5c-0.2-0.2-0.3-0.3-0.5-0.5c-0.2-0.2-0.3-0.3-0.5-0.5
				c-0.1-0.1-0.1-0.1-0.2-0.2c0,0-0.1,0-0.1-0.1c0.2,0,0.4,0,0.6,0c0.1,0.1,0.1,0.1,0.2,0.2c0.3,0.3,0.6,0.6,0.9,0.8
				c0.4,0.4,0.7,0.7,1.1,1c0.3,0.3,0.6,0.6,0.9,0.9c0.4,0.4,0.8,0.7,1.1,1.1c0.3,0.3,0.7,0.6,1,0.9c0.4,0.3,0.7,0.7,1.1,1
				c0.3,0.3,0.7,0.6,1,1c0.4,0.3,0.7,0.7,1.1,1C35.1,34.1,35.5,34.4,35.8,34.8C35.8,34.8,35.8,34.8,35.8,34.8z"/>
			<path class="st6" d="M35.8,34.8C35.8,34.8,35.8,34.7,35.8,34.8c-0.4-0.3-0.6-0.6-0.9-0.8c-0.2-0.2-0.4-0.4-0.6-0.6
				c-0.2-0.1-0.3-0.3-0.5-0.5c-0.2-0.2-0.4-0.4-0.6-0.5c-0.2-0.2-0.3-0.3-0.5-0.5c-0.2-0.2-0.3-0.4-0.5-0.5
				c-0.2-0.2-0.3-0.3-0.5-0.5c-0.2-0.2-0.3-0.3-0.5-0.5c-0.2-0.2-0.3-0.3-0.5-0.5c-0.2-0.2-0.3-0.3-0.5-0.5
				c-0.2-0.2-0.3-0.3-0.5-0.5c-0.2-0.2-0.3-0.3-0.5-0.5c-0.2-0.2-0.3-0.3-0.5-0.5c-0.2-0.2-0.3-0.3-0.5-0.5
				c-0.2-0.2-0.3-0.3-0.5-0.5c-0.2-0.2-0.3-0.3-0.5-0.5c-0.2-0.2-0.3-0.3-0.5-0.5c0,0,0,0-0.1-0.1c-0.1,0-0.1-0.1-0.1-0.2
				c0.2,0,0.4,0,0.7,0c0,0,0.1,0,0.1,0.1c0.3,0.3,0.6,0.6,0.9,0.8c0.4,0.4,0.7,0.7,1.1,1c0.3,0.3,0.7,0.6,1,1c0.4,0.3,0.7,0.7,1.1,1
				c0.3,0.3,0.7,0.6,1,1c0.4,0.3,0.7,0.7,1.1,1c0.3,0.3,0.7,0.6,1,1c0.4,0.3,0.7,0.7,1.1,1c0.2,0.2,0.3,0.3,0.5,0.5
				C35.8,34.3,35.8,34.6,35.8,34.8z"/>
			<path class="st5" d="M35.8,34.1C35.8,34.1,35.8,34.1,35.8,34.1c-0.3-0.3-0.5-0.5-0.7-0.7c-0.2-0.2-0.4-0.4-0.7-0.6
				c-0.2-0.2-0.3-0.3-0.5-0.5c-0.2-0.2-0.3-0.4-0.5-0.5c-0.2-0.2-0.3-0.3-0.5-0.5c-0.2-0.2-0.4-0.4-0.5-0.5
				c-0.2-0.2-0.3-0.3-0.5-0.5c-0.2-0.2-0.3-0.4-0.5-0.5c-0.2-0.2-0.3-0.3-0.5-0.5c-0.2-0.2-0.3-0.3-0.5-0.5
				c-0.2-0.2-0.3-0.3-0.5-0.5c-0.2-0.2-0.3-0.3-0.5-0.5c-0.2-0.2-0.3-0.3-0.5-0.5c-0.2-0.2-0.3-0.3-0.5-0.5
				c-0.2-0.2-0.4-0.4-0.5-0.5c-0.2-0.2-0.4-0.4-0.5-0.5c0,0,0,0,0,0c0.2,0,0.4,0,0.7,0c0.2,0.2,0.3,0.3,0.5,0.5
				c0.4,0.4,0.8,0.8,1.2,1.2c0.3,0.3,0.7,0.6,1,0.9c0.4,0.3,0.7,0.7,1.1,1c0.3,0.3,0.7,0.6,1,1c0.4,0.3,0.7,0.7,1.1,1
				c0.3,0.3,0.7,0.6,1,1c0.4,0.3,0.7,0.7,1.1,1c0.1,0.1,0.1,0.1,0.2,0.2C35.8,33.7,35.8,33.9,35.8,34.1z"/>
			<path class="st7" d="M35.8,33.5c-0.1,0-0.1-0.1-0.2-0.2c-0.3-0.3-0.6-0.6-0.9-0.8c-0.2-0.2-0.4-0.4-0.6-0.6
				c-0.1-0.1-0.3-0.3-0.4-0.4c-0.2-0.2-0.4-0.4-0.6-0.6c-0.2-0.1-0.3-0.3-0.5-0.5c-0.2-0.2-0.4-0.4-0.6-0.5
				c-0.2-0.2-0.3-0.3-0.5-0.5c-0.2-0.2-0.3-0.4-0.5-0.5c-0.2-0.2-0.3-0.3-0.5-0.5c-0.2-0.2-0.3-0.3-0.5-0.5
				c-0.2-0.2-0.3-0.3-0.5-0.5c-0.2-0.2-0.3-0.3-0.5-0.5c-0.2-0.2-0.3-0.3-0.5-0.5c-0.2-0.2-0.3-0.3-0.5-0.5
				c-0.1-0.1-0.1-0.1-0.2-0.2c0,0,0,0,0-0.1c0,0,0,0,0,0c0.2,0,0.4,0,0.6,0c0.2,0.2,0.4,0.4,0.6,0.6c0.3,0.3,0.6,0.6,0.9,0.8
				c0.4,0.3,0.7,0.7,1.1,1c0.3,0.3,0.7,0.7,1,1c0.4,0.3,0.7,0.7,1.1,1c0.3,0.3,0.7,0.6,1,1c0.4,0.3,0.7,0.7,1.1,1
				c0.2,0.2,0.5,0.5,0.7,0.7C35.8,33.1,35.8,33.3,35.8,33.5z"/>
			<path class="st18" d="M30.3,25.7c0.2,0,0.3,0,0.5,0c0.2,0.2,0.4,0.3,0.5,0.5c0.3,0.3,0.6,0.5,0.8,0.8c0.4,0.4,0.7,0.7,1.1,1.1
				c0.3,0.3,0.7,0.6,1,1c0.4,0.3,0.7,0.7,1.1,1c0.2,0.2,0.3,0.3,0.5,0.5c0,0.2,0,0.5,0,0.7c0,0-0.1,0-0.1,0
				c-0.1-0.1-0.2-0.2-0.3-0.3c-0.4-0.4-0.9-0.9-1.3-1.3c-0.3-0.3-0.7-0.7-1-1c-0.4-0.3-0.7-0.7-1.1-1c-0.3-0.3-0.7-0.7-1-1
				c-0.3-0.3-0.6-0.6-1-0.9c0,0-0.1-0.1-0.1-0.1C30.1,25.7,30.2,25.7,30.3,25.7z"/>
			<path class="st17" d="M30,25.7C30,25.8,30,25.8,30,25.7c0.2,0.2,0.3,0.3,0.4,0.4c0.2,0.2,0.3,0.3,0.5,0.5
				c0.2,0.2,0.3,0.3,0.5,0.5c0.2,0.2,0.3,0.3,0.5,0.5c0.2,0.2,0.3,0.3,0.5,0.5c0.2,0.2,0.3,0.3,0.5,0.5c0.2,0.2,0.3,0.3,0.5,0.5
				c0.2,0.2,0.3,0.3,0.5,0.5c0.2,0.2,0.3,0.3,0.5,0.5c0.2,0.2,0.3,0.3,0.5,0.5c0.2,0.2,0.3,0.3,0.5,0.5c0.1,0.1,0.2,0.1,0.2,0.2
				c0,0,0,0,0,0c0,0.2,0,0.4,0,0.6c-0.1,0-0.1,0-0.2-0.1c-0.2-0.1-0.3-0.3-0.5-0.4c-0.3-0.2-0.5-0.5-0.8-0.7
				c-0.4-0.4-0.8-0.8-1.2-1.1c-0.3-0.3-0.7-0.6-1-1c-0.4-0.3-0.7-0.7-1.1-1c-0.3-0.3-0.7-0.6-1-1c-0.3-0.2-0.5-0.5-0.8-0.8
				c0,0-0.1-0.1-0.1-0.1c0.1,0,0.3,0,0.4,0C29.8,25.7,29.9,25.7,30,25.7z"/>
			<path class="st8" d="M35.8,32.9c-0.1,0-0.1-0.1-0.2-0.2c-0.3-0.3-0.6-0.6-0.9-0.8c-0.2-0.2-0.4-0.4-0.6-0.6
				c-0.2-0.1-0.3-0.3-0.4-0.4c-0.2-0.2-0.4-0.4-0.6-0.6c-0.2-0.2-0.3-0.3-0.5-0.5c-0.2-0.2-0.4-0.4-0.5-0.5
				c-0.2-0.2-0.3-0.3-0.5-0.5c-0.2-0.2-0.4-0.4-0.6-0.5c-0.2-0.2-0.3-0.3-0.5-0.5c-0.2-0.2-0.3-0.3-0.5-0.5
				c-0.2-0.2-0.3-0.3-0.5-0.5c-0.2-0.2-0.3-0.4-0.5-0.5c-0.2-0.2-0.3-0.3-0.5-0.5c0,0-0.1,0-0.1-0.1c0.2,0,0.3,0,0.5,0
				c0.1,0,0.1,0.1,0.2,0.1c0.3,0.3,0.6,0.5,0.8,0.8c0.4,0.4,0.7,0.7,1.1,1.1c0.3,0.3,0.7,0.6,1,1c0.4,0.3,0.7,0.7,1.1,1
				c0.3,0.3,0.7,0.6,1,1c0.4,0.3,0.7,0.7,1.1,1c0.2,0.2,0.4,0.4,0.7,0.6C35.8,32.5,35.8,32.7,35.8,32.9z"/>
			<path class="st20" d="M35.8,30.6C35.8,30.6,35.8,30.6,35.8,30.6c-0.3-0.3-0.6-0.5-0.8-0.8c-0.2-0.2-0.4-0.4-0.7-0.6
				c-0.2-0.2-0.3-0.3-0.5-0.5c-0.2-0.2-0.3-0.3-0.5-0.5c-0.2-0.2-0.3-0.3-0.5-0.5c-0.2-0.2-0.3-0.3-0.5-0.5
				c-0.2-0.2-0.3-0.3-0.5-0.5c-0.2-0.2-0.3-0.3-0.5-0.5c-0.2-0.1-0.3-0.3-0.4-0.4c0,0-0.1,0-0.1-0.1c0,0,0,0,0,0c0.2,0,0.4,0,0.6,0
				c0,0,0,0,0,0c0.1,0.1,0.2,0.2,0.3,0.3c0.3,0.3,0.6,0.6,0.9,0.8c0.4,0.4,0.7,0.7,1.1,1c0.3,0.3,0.7,0.6,1,0.9
				c0.4,0.3,0.7,0.7,1.1,1c0,0,0,0,0.1,0.1C35.8,30.2,35.8,30.4,35.8,30.6z"/>
			<path class="st19" d="M35.8,32.4c-0.1,0-0.1-0.1-0.2-0.1c-0.3-0.3-0.6-0.6-0.9-0.9c-0.2-0.2-0.4-0.4-0.6-0.5
				c-0.2-0.1-0.3-0.3-0.5-0.5c-0.2-0.2-0.4-0.4-0.5-0.5c-0.2-0.2-0.3-0.3-0.5-0.5c-0.2-0.2-0.3-0.3-0.5-0.5
				c-0.2-0.2-0.3-0.3-0.5-0.5c-0.2-0.2-0.3-0.3-0.5-0.5c-0.2-0.2-0.3-0.3-0.5-0.5c-0.2-0.2-0.3-0.3-0.5-0.5
				c-0.2-0.2-0.3-0.3-0.5-0.5c-0.2-0.2-0.3-0.3-0.5-0.5c-0.1,0-0.1-0.1-0.1-0.2c0.1,0,0.1,0,0.2,0c0.1,0,0.2,0,0.2,0
				c0,0,0,0.1,0.1,0.1c0.2,0.2,0.4,0.4,0.7,0.6c0.2,0.1,0.3,0.3,0.5,0.4c0.2,0.2,0.4,0.4,0.6,0.5c0.2,0.2,0.3,0.3,0.5,0.5
				c0.2,0.2,0.3,0.4,0.5,0.5c0.2,0.2,0.3,0.3,0.5,0.5c0.2,0.2,0.3,0.3,0.5,0.5c0.2,0.2,0.3,0.3,0.5,0.5c0.2,0.2,0.3,0.3,0.5,0.5
				c0.2,0.2,0.3,0.3,0.5,0.5c0.2,0.2,0.3,0.3,0.5,0.5c0.2,0.1,0.3,0.3,0.5,0.5c0,0,0.1,0.1,0.1,0.1C35.8,32.1,35.8,32.2,35.8,32.4z"
				/>
			<path class="st21" d="M35.8,30c-0.1,0-0.1-0.1-0.2-0.1c-0.3-0.3-0.5-0.5-0.8-0.8c-0.2-0.2-0.3-0.3-0.5-0.5
				c-0.2-0.2-0.3-0.3-0.5-0.5c-0.2-0.2-0.3-0.3-0.5-0.5c-0.2-0.2-0.3-0.3-0.5-0.5c-0.2-0.2-0.3-0.3-0.5-0.5
				c-0.2-0.2-0.3-0.3-0.5-0.5c-0.1-0.1-0.2-0.1-0.2-0.2c0,0-0.1-0.1-0.1-0.1c0.2,0,0.4,0,0.7,0c0,0,0.1,0.1,0.1,0.1
				c0.3,0.3,0.6,0.5,0.9,0.8c0.4,0.4,0.7,0.7,1.1,1.1c0.3,0.3,0.6,0.6,0.9,0.8c0.3,0.2,0.5,0.5,0.8,0.7C35.8,29.5,35.8,29.7,35.8,30
				z"/>
			<path class="st14" d="M35.8,29.3c0,0-0.1,0-0.1-0.1c-0.3-0.3-0.5-0.5-0.8-0.8c-0.2-0.2-0.4-0.4-0.7-0.6c-0.2-0.2-0.3-0.3-0.5-0.5
				c-0.2-0.2-0.4-0.4-0.5-0.5c-0.2-0.2-0.3-0.3-0.5-0.5c-0.2-0.2-0.4-0.4-0.6-0.6c0,0,0,0,0-0.1c0.2,0,0.5,0,0.7,0
				c0.2,0.1,0.3,0.3,0.5,0.4c0.3,0.3,0.6,0.6,0.9,0.8c0.4,0.3,0.7,0.7,1.1,1c0.2,0.2,0.4,0.4,0.6,0.6c0,0.2,0,0.3,0,0.5
				C35.8,29.2,35.8,29.2,35.8,29.3z"/>
			<path class="st16" d="M35.8,28.6c0,0-0.1,0-0.1-0.1c-0.3-0.3-0.5-0.5-0.8-0.8c-0.2-0.2-0.4-0.4-0.6-0.6c-0.2-0.2-0.3-0.3-0.5-0.5
				c-0.2-0.2-0.4-0.4-0.5-0.5c-0.1-0.1-0.2-0.2-0.4-0.3c0,0-0.1,0-0.1-0.1c0,0,0,0,0.1,0c0.2,0,0.4,0,0.6,0c0,0,0,0.1,0,0.1
				c0.1,0.1,0.2,0.2,0.3,0.3c0.2,0.2,0.3,0.3,0.5,0.5c0.2,0.2,0.3,0.3,0.5,0.5c0.2,0.2,0.3,0.3,0.5,0.5c0.1,0.1,0.2,0.2,0.3,0.3
				c0,0,0.1,0,0.1,0.1C35.8,28.2,35.8,28.4,35.8,28.6z"/>
		</g>
	</g>
</g>
</svg>
