<?xml version="1.0" encoding="utf-8"?>
<!-- Generator: Adobe Illustrator 22.0.0, SVG Export Plug-In . SVG Version: 6.00 Build 0)  -->
<svg version="1.1" id="Layer_1" xmlns="http://www.w3.org/2000/svg" xmlns:xlink="http://www.w3.org/1999/xlink" x="0px" y="0px"
	 viewBox="0 0 60 60" style="enable-background:new 0 0 60 60;" xml:space="preserve">
<style type="text/css">
	.st0{fill:#FEFEFE;}
	.st1{fill:#2992E3;}
	.st2{fill:#0B4371;}
	.st3{fill:#2590E2;}
</style>
<g id="dTVf0s_1_">
	<g>
		<path class="st0" d="M29.9,43.9c-4.5,0-9,0-13.5,0c-0.6,0-0.7-0.1-0.7-0.7c0-9,0-18,0-27c0-0.6,0.1-0.7,0.7-0.7c9,0,18,0,27,0
			c0.6,0,0.7,0.1,0.7,0.7c0,9,0,18,0,27c0,0.6-0.1,0.7-0.7,0.7C38.9,43.9,34.4,43.9,29.9,43.9z"/>
		<path class="st1" d="M41.6,38.1c-0.4,2.4-2.5,4.3-5,4.4c-2.4,0.1-4.8,0.1-7.2,0c-2.7-0.1-5-2.4-5.1-5c-0.1-2.5-0.1-4.9,0-7.4
			c0.1-2.6,2.4-4.9,5-5c1.5-0.1,3.1,0,4.6,0c0.9,0,1.6,0.4,2.2,0.9c1.6,1.5,3.3,3,4.9,4.5c0.2,0.2,0.5,0.5,0.5,0.8
			C41.6,33.6,41.6,35.8,41.6,38.1z"/>
		<path class="st2" d="M17.9,27c0-0.2,0-0.4,0-0.6c-0.5-2.5,0.7-4.2,2.5-5.7c1.2-1,2.3-2,3.5-3c0.7-0.6,1.5-0.9,2.4-0.8
			c1.7,0.1,3.3-0.1,5,0.2c3.5,0.6,5.1,3.1,4.8,6.6c-0.1,1.1-1,0.5-1.5,0.6c-0.5,0.1-0.8,0-0.8-0.6c-0.2-3.6-1-4.4-4.6-4.4
			c-1.1,0-2.6-0.5-3.3,0.2c-0.7,0.7-0.2,2.1-0.2,3.3c0,2.2,0,2.2-2.2,2.2c-0.9,0-1.8,0-2.7,0c-0.5,0-0.7,0.1-0.6,0.6
			c0,1.4-0.1,2.7,0,4.1c0.1,1.4,0.8,2.6,2.2,3.2c1.1,0.5,0.5,1.5,0.4,2.1c-0.1,0.7-0.9,0.2-1.3,0c-2.2-1-3.3-2.8-3.6-5.2
			C17.8,28.9,17.9,27.9,17.9,27C17.9,27,17.9,27,17.9,27z"/>
		<path class="st3" d="M41.6,38.1c-0.3-0.3-0.2-0.7-0.2-1c0-1.6,0-3.2,0-4.8c0-0.3-0.1-0.7,0.2-1c0.4,0.8,0.2,1.6,0.2,2.4
			C41.7,35.1,42,36.7,41.6,38.1z"/>
		<path class="st0" d="M33,40.3c-1,0-2.1,0-3.1,0c-2-0.1-3.4-1.4-3.4-3.4c0-2.1,0-4.1,0-6.2c0-2,1.4-3.3,3.3-3.4c1.2,0,2.4,0,3.5,0
			c0.8,0,1,0.3,0.9,1c0,1,0,2.1,0,3.1c-0.1,0.9,0.3,1.1,1.1,1c1.1-0.1,2.3,0,3.4,0c0.6,0,0.8,0.2,0.8,0.8c0,1.3,0,2.5,0,3.8
			c-0.1,2.1-1.4,3.4-3.5,3.5C35,40.3,34,40.3,33,40.3z"/>
	</g>
</g>
</svg>
