<?xml version="1.0" encoding="utf-8"?>
<!-- Generator: Adobe Illustrator 22.0.0, SVG Export Plug-In . SVG Version: 6.00 Build 0)  -->
<svg version="1.1" id="Layer_1" xmlns="http://www.w3.org/2000/svg" xmlns:xlink="http://www.w3.org/1999/xlink" x="0px" y="0px"
	 viewBox="0 0 60 60" style="enable-background:new 0 0 60 60;" xml:space="preserve">
<style type="text/css">
	.st0{clip-path:url(#SVGID_1_);}
	.st1{fill:#F7A11F;}
	.st2{fill:#096DAE;}
</style>
<g>
	<defs>
		<rect id="SVGID_3_" x="10" y="21" width="40" height="17"/>
	</defs>
	<clipPath id="SVGID_1_">
		<use xlink:href="#SVGID_3_"  style="overflow:visible;"/>
	</clipPath>
	<g class="st0">
		<path class="st1" d="M30.5,21c1.4-0.1,2.9,0.2,4.2,0.7c2.1,0.8,3.9,2.1,5.2,3.9c0.6,0.8,1.1,1.7,1.5,2.6c0.1,0.2,0.1,0.3,0.1,0.5
			c0,0.1-0.1,0.3-0.2,0.4c-0.1,0.1-0.2,0.2-0.4,0.2c-0.1,0-0.3,0-0.4-0.1c-0.1-0.1-0.2-0.2-0.3-0.3c-0.8-1.9-2-3.5-3.7-4.7
			c-1.1-0.8-2.4-1.4-3.8-1.6c-1.4-0.3-2.8-0.2-4.1,0.1c-2.2,0.6-4.2,1.9-5.5,3.7c-0.6,0.8-1.1,1.6-1.5,2.5c0,0.1-0.1,0.2-0.2,0.3
			s-0.2,0.1-0.3,0.1c-0.1,0-0.2,0-0.3,0c-0.1,0-0.2-0.1-0.3-0.2c-0.1-0.1-0.1-0.2-0.2-0.3c0-0.1,0-0.3,0-0.4c1-2.5,2.9-4.6,5.2-6
			C27.1,21.5,28.8,21.1,30.5,21z"/>
		<path class="st2" d="M28.6,28.9c0-0.1,0-0.1,0.1-0.2c0,0,0.1-0.1,0.2-0.1c0.2,0,0.3,0,0.5,0c0.1,0,0.1,0,0.1,0.1
			c0,0,0.1,0.1,0.1,0.1c0,1.5,0,3,0,4.4c0.6-0.7,1.1-1.3,1.7-2c0.1-0.1,0.2-0.3,0.4-0.3c0.2,0,0.5,0,0.7,0c0,0,0,0,0.1,0
			c0,0,0,0,0.1,0c0,0,0,0,0,0.1c0,0,0,0,0,0.1c0,0.1-0.1,0.1-0.2,0.2c-0.6,0.7-1.2,1.3-1.8,2c0.6,0.7,1.2,1.4,1.8,2.2
			c0.1,0.1,0.2,0.2,0.3,0.3c0,0,0,0,0,0.1c0,0,0,0,0,0.1c0,0,0,0,0,0c0,0,0,0-0.1,0c-0.2,0-0.4,0-0.6,0c-0.1,0-0.2,0-0.3,0
			c-0.1-0.1-0.2-0.2-0.2-0.3c-0.6-0.8-1.1-1.5-1.7-2.3c0,0.7,0,1.5,0,2.2c0,0.1,0,0.2-0.1,0.3C29.3,36,29.2,35.9,29,36
			c-0.1,0-0.3,0-0.4-0.1c0,0,0-0.1-0.1-0.1c0,0,0-0.1,0-0.1L28.6,28.9L28.6,28.9z M26,30.9c0.3-0.1,0.6-0.1,0.9,0
			c0.1,0,0.2,0.2,0.2,0.3c-0.1,0.1-0.1,0.3-0.1,0.5c0,0.1-0.1,0.1-0.1,0.1c0,0-0.1,0-0.2,0c-0.2-0.1-0.5-0.1-0.7-0.1
			c-0.1,0-0.2,0-0.2,0.1c-0.1,0-0.1,0.1-0.2,0.2c-0.2,0.2-0.3,0.5-0.3,0.7c0,0.2,0,0.4,0,0.6v2.5c0,0.1,0,0.1-0.1,0.2
			c0,0-0.1,0.1-0.2,0.1c-0.2,0-0.3,0-0.5,0c-0.1,0-0.1,0-0.2-0.1s-0.1-0.1-0.1-0.2c0-1.5,0-3,0-4.5c0-0.1,0.1-0.2,0.3-0.2
			s0.4-0.1,0.5,0.1c0.1,0.2,0.1,0.4,0.2,0.6C25.3,31.3,25.6,31.1,26,30.9L26,30.9z M10,31.1c0,0,0.1-0.1,0.2-0.1c0.2,0,0.4,0,0.6,0
			c0.1,0,0.1,0,0.1,0.1c0,0,0.1,0.1,0.1,0.1c0.2,0.9,0.4,1.8,0.6,2.7c0.1,0.3,0.1,0.6,0.2,0.8c0,0.3,0.1,0.5,0.1,0.8
			c0-0.4,0.1-0.7,0.2-1.1l0.8-3.2c0-0.1,0-0.1,0.1-0.2c0,0,0.1-0.1,0.2-0.1c0.2,0,0.5,0,0.7,0c0.1,0,0.1,0,0.2,0.1
			c0.1,0,0.1,0.1,0.1,0.2l0.6,2.4c0.1,0.5,0.3,1,0.4,1.5c0,0.1,0,0.3,0.1,0.4c0.1-0.8,0.2-1.6,0.4-2.4c0.1-0.6,0.3-1.3,0.4-1.9
			c0-0.1,0-0.1,0.1-0.1c0,0,0.1-0.1,0.2,0c0.2,0,0.4,0,0.6,0c0,0,0.1,0,0.1,0c0,0,0,0,0.1,0.1c0,0,0,0.1,0,0.1c0,0,0,0.1,0,0.1
			l-1.2,4.5c0,0.1,0,0.1-0.1,0.2c0,0-0.1,0.1-0.2,0.1c-0.3,0-0.6,0-0.9,0c-0.1,0-0.1,0-0.2,0c0,0-0.1-0.1-0.1-0.1
			c-0.3-1-0.5-2.1-0.8-3.1c-0.1-0.4-0.1-0.7-0.2-1.1c0,0.3-0.1,0.7-0.2,1l-0.8,3.2c0,0.2-0.2,0.2-0.4,0.2c-0.3,0-0.6,0-0.8,0
			c0,0-0.1,0-0.1-0.1c0,0-0.1-0.1-0.1-0.1L10,31.3C10,31.2,10,31.1,10,31.1L10,31.1z M44.8,31c0.2,0,0.4,0,0.6,0
			c0.1,0,0.1,0,0.2,0.1c0,0,0.1,0.1,0.1,0.2c0.3,1,0.7,1.9,1,2.9c0.1,0.2,0.1,0.4,0.2,0.6c0.1-0.6,0.3-1.1,0.5-1.7l0.6-1.8
			c0-0.1,0-0.1,0.1-0.1c0,0,0.1-0.1,0.1-0.1c0.2,0,0.3,0,0.5,0c0,0,0.1,0,0.2,0c0,0,0.1,0,0.1,0.1c0,0,0,0.1,0,0.1c0,0,0,0.1,0,0.1
			l-1.7,5.1c-0.1,0.3-0.2,0.6-0.3,0.8c-0.2,0.4-0.6,0.7-1,0.8c-0.1,0-0.3,0.1-0.4,0.1c-0.1,0-0.1-0.1-0.2-0.2
			c-0.1-0.1-0.1-0.2-0.1-0.2c0,0,0-0.1,0.1-0.1c0,0,0.1-0.1,0.1-0.1c0.2-0.1,0.3-0.1,0.5-0.3c0.3-0.3,0.5-0.7,0.6-1.2
			c-0.1-0.2-0.1-0.4-0.2-0.6c-0.5-1.3-1.1-2.6-1.6-3.9c0-0.1-0.1-0.2-0.1-0.3C44.6,31,44.7,31,44.8,31L44.8,31z M20.1,31.6
			c-0.1,0-0.3,0.1-0.4,0.2c-0.1,0.1-0.2,0.2-0.3,0.3c-0.2,0.5-0.3,1-0.3,1.5c0,0.5,0.1,0.9,0.4,1.3c0.1,0.1,0.2,0.2,0.4,0.3
			c0.1,0.1,0.3,0.1,0.5,0.1c0.2,0,0.3,0,0.5-0.1c0.1-0.1,0.3-0.2,0.4-0.3c0.2-0.3,0.4-0.7,0.4-1.2c0-0.4,0-0.8-0.1-1.2
			c-0.1-0.3-0.2-0.6-0.5-0.8C20.7,31.6,20.4,31.5,20.1,31.6L20.1,31.6z M20.2,30.9c0.5,0,1.1,0.1,1.5,0.4c0.4,0.3,0.7,0.7,0.8,1.2
			c0.1,0.6,0.1,1.2,0,1.8c-0.1,0.5-0.4,1-0.9,1.3c-0.5,0.3-1.1,0.4-1.6,0.3c-0.5-0.1-0.9-0.3-1.3-0.6c-0.4-0.4-0.6-1-0.6-1.6
			c-0.1-0.7,0.1-1.3,0.4-1.9c0.3-0.4,0.6-0.7,1.1-0.9C19.8,30.9,20,30.9,20.2,30.9L20.2,30.9z M35.7,31.6c-0.1,0-0.3,0.1-0.4,0.1
			C35.1,31.8,35,31.9,35,32c-0.2,0.5-0.3,1.1-0.2,1.7c0,0.4,0.1,0.7,0.2,1.1c0.1,0.1,0.1,0.2,0.2,0.3c0.1,0.1,0.2,0.1,0.3,0.2
			c0.2,0.1,0.4,0.1,0.6,0c0.2-0.1,0.3-0.2,0.5-0.3c0.2-0.3,0.4-0.7,0.4-1.1c0-0.4,0-0.9-0.1-1.3c-0.1-0.3-0.2-0.6-0.4-0.8
			c-0.1-0.1-0.2-0.2-0.4-0.2C35.9,31.6,35.8,31.6,35.7,31.6L35.7,31.6z M36.9,28.8c0-0.1,0-0.1,0.1-0.1c0,0,0.1-0.1,0.1-0.1
			c0.2,0,0.3,0,0.5,0c0,0,0.1,0,0.1,0c0,0,0.1,0,0.1,0c0,0,0,0,0.1,0.1c0,0,0,0.1,0,0.1v6.9c0,0.1,0,0.1-0.1,0.2
			c0,0-0.1,0.1-0.1,0.1c-0.1,0-0.2,0-0.4,0c0,0-0.1,0-0.1,0c0,0-0.1-0.1-0.1-0.1c0-0.2-0.1-0.3-0.1-0.4c-0.2,0.3-0.4,0.5-0.7,0.6
			C35.9,36,35.4,36,35,35.9c-0.2-0.1-0.4-0.2-0.6-0.3c-0.2-0.1-0.3-0.3-0.4-0.5c-0.3-0.6-0.3-1.3-0.3-2c0-0.6,0.1-1.1,0.5-1.6
			c0.1-0.2,0.3-0.3,0.5-0.4c0.2-0.1,0.4-0.2,0.6-0.2c0.2,0,0.4,0,0.6,0c0.2,0,0.4,0.1,0.6,0.3c0.2,0.1,0.3,0.3,0.4,0.4
			C36.9,30.7,36.9,29.7,36.9,28.8L36.9,28.8z M41.2,31.6c-0.1,0-0.3,0.1-0.4,0.2c-0.2,0.2-0.4,0.5-0.4,0.8c-0.1,0.5-0.1,1,0,1.4
			c0,0.4,0.1,0.7,0.4,1c0.1,0.1,0.2,0.2,0.4,0.2c0.1,0,0.3,0.1,0.4,0.1c0.2,0,0.3,0,0.4-0.1c0.1-0.1,0.3-0.2,0.4-0.3
			c0.2-0.3,0.3-0.7,0.3-1.1c0-0.5,0-0.9-0.1-1.4c-0.1-0.3-0.2-0.5-0.4-0.7C41.9,31.6,41.6,31.5,41.2,31.6L41.2,31.6z M40.9,31
			c0.4-0.1,0.9-0.1,1.3,0c0.4,0.1,0.8,0.3,1,0.7c0.2,0.4,0.4,0.8,0.4,1.2c0,0.3,0,0.7,0,1c0,0.6,0,1.2,0,1.8c0,0,0,0.1,0,0.1
			c0,0,0,0.1-0.1,0.1c-0.1,0-0.2,0.1-0.3,0c-0.1,0-0.3,0-0.3-0.1c-0.1-0.2-0.1-0.3-0.1-0.5c-0.1,0.2-0.3,0.4-0.6,0.5
			C41.8,36,41.4,36,41,35.9c-0.2,0-0.5-0.1-0.7-0.3c-0.2-0.1-0.4-0.3-0.5-0.5c-0.3-0.5-0.4-1.1-0.4-1.7c0-0.6,0.1-1.1,0.4-1.6
			C40,31.4,40.4,31.1,40.9,31L40.9,31z M49.2,34.7c-0.1,0.1-0.2,0.1-0.3,0.3c-0.1,0.1-0.1,0.3,0,0.4c0,0.1,0,0.1,0.1,0.2
			c0,0.1,0.1,0.1,0.2,0.2s0.1,0.1,0.2,0.1c0.1,0,0.1,0,0.2,0c0.1,0,0.2-0.1,0.3-0.3c0.1-0.1,0.1-0.3,0-0.4c0-0.1-0.1-0.1-0.1-0.2
			c0-0.1-0.1-0.1-0.2-0.1c-0.1,0-0.1-0.1-0.2-0.1C49.3,34.7,49.3,34.7,49.2,34.7L49.2,34.7z M49.2,34.6c0.1,0,0.3,0,0.4,0
			c0.1,0.1,0.2,0.2,0.3,0.3c0.1,0.1,0.1,0.3,0.1,0.4s-0.1,0.3-0.2,0.4c-0.1,0.1-0.2,0.2-0.3,0.2c-0.2,0-0.3,0-0.5-0.1
			s-0.2-0.2-0.3-0.4c0-0.2,0-0.3,0.1-0.5C48.9,34.8,49.1,34.6,49.2,34.6z"/>
		<path class="st2" d="M49.1,34.9c0.2,0,0.4,0,0.5,0.1c0,0,0,0.1,0.1,0.1c0,0,0,0.1,0,0.1c0,0,0,0.1,0,0.1c0,0-0.1,0.1-0.1,0.1
			c0,0.1,0.1,0.2,0.1,0.3h-0.2c0-0.1-0.1-0.2-0.1-0.3h-0.1v0.3h-0.2V34.9z M49.3,35v0.2c0.1,0,0.1,0,0.2,0c0.1,0,0-0.1,0-0.1
			C49.4,35,49.3,35,49.3,35z"/>
	</g>
</g>
</svg>
