<?xml version="1.0" encoding="utf-8"?>
<!-- Generator: Adobe Illustrator 22.0.0, SVG Export Plug-In . SVG Version: 6.00 Build 0)  -->
<svg version="1.1" id="Layer_1" xmlns="http://www.w3.org/2000/svg" xmlns:xlink="http://www.w3.org/1999/xlink" x="0px" y="0px"
	 viewBox="0 0 60 60" style="enable-background:new 0 0 60 60;" xml:space="preserve">
<style type="text/css">
	.st0{fill:#FDFDFD;}
	.st1{fill:#E11F3A;}
	.st2{fill:#1E9BD6;}
	.st3{fill:#E65364;}
	.st4{fill:#1196D3;}
	.st5{fill:#040404;}
	.st6{fill:#2FA1D8;}
	.st7{fill:#239DD6;}
	.st8{fill:#FEFCFC;}
</style>
<g id="Y97uux_1_">
	<g>
		<g>
			<path class="st0" d="M13.1,35c0-7.1,0-14.2,0-21.3c0-0.4,0.1-0.5,0.5-0.5c10.7,0,21.3,0,32,0c0.4,0,0.5,0.1,0.5,0.5
				c0,2.7,0,5.3,0,8c-0.6-2.2-2.4-2.8-4.6-1.5c-0.1,0.1-0.2,0.1-0.4,0c-0.6-0.5-1.3-0.7-2.1-0.6c-1,0.1-1.7,0.3-2.1,1.3
				c-0.6,1.4-0.4,2.7,0.5,3.8c1,1.1,2,2.2,3,3.3c0.3,0.4,1.4,0.4,1.7,0c1.4-1.6,3.2-2.9,4-5c0,7.5,0,15.1,0,22.6
				c0,0.5-0.1,0.6-0.6,0.6c-10.6,0-21.2,0-31.8,0c-0.5,0-0.6-0.1-0.6-0.6c0-3.3,0-6.6,0-10l0.1,0c0,0,0.1,0,0.1,0
				c0.1,0.2,0.1,0.4,0.2,0.6c0,0.1,0.1,0.2,0.1,0.3c0,0.1,0,0.1,0.1,0.2c0.8,1.6,2.2,2.5,4,2.9c2.3,0.5,4.6,0.4,6.6-1.1
				c1.3-1,1.7-2.3,1.5-3.9c-0.2-1.5-1.2-2.4-2.5-2.9c-0.5-0.2-1.1-0.3-1.6-0.5c-1.2-0.3-2.4-0.3-3.6-0.8c-0.4-0.1-0.9-0.3-0.9-0.8
				c0-0.5,0.5-0.7,0.9-0.9c0.7-0.3,1.4-0.2,2.2-0.2c0.1,0,0.2,0.1,0.3,0.1c0.1,0,0.2,0,0.3,0.1c0.1,0,0.1,0.1,0.2,0.1
				c0.2,0.2,0.5,0.4,0.7,0.6c0.1,0.4,0.4,0.3,0.6,0.3c0.7,0,1.4,0,2.1,0c1.2,0,1.2,0,0.7-1.2c-0.7-1.7-2.1-2.6-3.8-2.9
				c-0.1,0-0.2-0.1-0.3-0.1c-0.1,0-0.3,0-0.4,0c-0.7-0.2-1.5-0.2-2.2,0c-1.4,0.1-2.7,0.6-3.7,1.6c-1.8,1.9-1.3,4.7,1,5.9
				c0.7,0.4,1.5,0.6,2.4,0.8c1.1,0.2,2.3,0.3,3.4,0.7c0.4,0.2,0.8,0.4,0.8,0.9c0,0.5-0.4,0.8-0.8,1c-1.5,0.7-3.3,0.4-4.5-0.8
				c0-0.1-0.1-0.1-0.1-0.2c0,0,0,0,0,0c-0.1-0.4-0.4-0.3-0.6-0.3C15.2,35,14.2,35,13.1,35z M29.1,33.9c0,1.3,0,2.5,0,3.8
				c0,0.7-0.3,1.5,0.1,1.9c0.4,0.3,1.3,0.1,1.9,0.1c0.5,0,0.6-0.1,0.6-0.6c0-3.2,0-6.5,0-9.8c0-1.2,0-1.2,1.2-1.2c2.1,0,2.1,0,2-2.1
				c0-0.3-0.1-0.5-0.5-0.5c-0.8,0-1.5,0-2.3,0c-0.2,0-0.4,0.1-0.4-0.2c-0.3-1.3,0.6-3.1,1.9-3.4c0.4-0.1,1.1,0.3,1.3-0.3
				c0.2-0.4,0-1,0-1.5c0-0.1,0-0.2,0-0.3c0.1-0.4-0.1-0.4-0.4-0.5c-1.1-0.1-2.2,0.1-3.2,0.7c-1.7,1.1-2.2,2.8-2.2,4.7
				c0,0.7-0.2,0.8-0.8,0.8c-1.1,0-1.1,0-1.1,1.1c0,0,0,0.1,0,0.1c0,1.3,0,1.3,1.3,1.3c0.5,0,0.6,0.1,0.6,0.6
				C29.1,30.4,29.1,32.2,29.1,33.9z"/>
			<path class="st1" d="M46.1,23c-0.8,2.1-2.5,3.4-4,5c-0.3,0.3-1.4,0.3-1.7,0c-1-1.1-2.1-2.1-3-3.3c-1-1.1-1.1-2.5-0.5-3.8
				c0.4-0.9,1.1-1.2,2.1-1.3c0.8-0.1,1.5,0.1,2.1,0.6c0.1,0.1,0.2,0.1,0.4,0c2.2-1.3,4-0.7,4.6,1.5c0,0,0,0.1,0,0.1
				c-0.2,0.3-0.2,0.6,0,0.9C46.1,22.8,46.1,22.9,46.1,23z M39.2,20.9c-0.8,0-1.1,0.3-1.3,1c-0.1,0.7,0.1,1.3,0.5,1.8
				c0.8,0.9,1.7,1.8,2.5,2.7c0.2,0.2,0.4,0.3,0.6,0c0.8-0.9,1.8-1.8,2.5-2.7c0.3-0.4,0.6-0.9,0.5-1.5c-0.1-0.6-0.1-1.2-0.8-1.3
				c-0.9-0.2-1.5,0.1-1.7,0.9c-0.1,0.5-0.4,0.5-0.8,0.5c-0.4,0-0.8,0.1-0.9-0.5C40.4,21.2,39.9,20.9,39.2,20.9z"/>
			<path class="st2" d="M13.1,35c1,0,2,0,3,0c0.2,0,0.6-0.1,0.6,0.3c-0.9,0-1.8,0-2.7,0c-0.3,0-0.6,0.1-0.8,0.3l-0.1,0l-0.1,0
				C13.1,35.4,13.1,35.2,13.1,35z"/>
			<path class="st3" d="M46.1,22.7c-0.2-0.3-0.2-0.6,0-0.9C46.1,22.1,46.1,22.4,46.1,22.7z"/>
			<path class="st4" d="M13.3,35.6c0.2-0.3,0.5-0.3,0.8-0.3c0.9,0,1.8,0,2.7,0c0,0,0,0,0,0c0,0.1,0.1,0.1,0.1,0.2
				c1.2,1.2,3,1.6,4.5,0.8c0.4-0.2,0.8-0.4,0.8-1c0-0.5-0.4-0.8-0.8-0.9c-1.1-0.4-2.2-0.5-3.4-0.7c-0.8-0.2-1.6-0.4-2.4-0.8
				c-2.3-1.1-2.8-4-1-5.9c1-1,2.2-1.5,3.7-1.6c0.7,0.2,1.5,0.2,2.2,0c0.1,0,0.3,0,0.4,0c0,0.2,0.1,0.3,0.3,0.1
				c1.7,0.4,3.1,1.3,3.8,2.9c-0.1,0.1-0.1,0.2-0.1,0.3c0.3,0.6,0,0.6-0.5,0.6c-0.9,0-1.8,0-2.8,0c-0.2-0.2-0.5-0.4-0.7-0.6
				c-0.1,0-0.1-0.1-0.2-0.1c-0.1,0-0.2,0-0.3-0.1c-0.1-0.2-0.1-0.3-0.3-0.1c-0.7,0-1.5-0.1-2.2,0.2c-0.4,0.2-0.9,0.3-0.9,0.9
				c0,0.5,0.5,0.6,0.9,0.8c1.1,0.4,2.4,0.5,3.6,0.8c0.5,0.1,1.1,0.3,1.6,0.5c1.4,0.5,2.4,1.4,2.5,2.9c0.2,1.6-0.2,2.9-1.5,3.9
				c-2,1.5-4.2,1.6-6.6,1.1c-1.7-0.4-3.1-1.3-4-2.9c0-0.1,0-0.1-0.1-0.2c0.2-0.2,0.1-0.3-0.1-0.3C13.4,36,13.3,35.8,13.3,35.6z"/>
			<path class="st5" d="M29.1,33.9c0-1.7,0-3.5,0-5.2c0-0.4-0.1-0.6-0.6-0.6c-1.3,0-1.3,0-1.3-1.3c0,0,0-0.1,0-0.1
				c0-1.1,0-1.1,1.1-1.1c0.6,0,0.8-0.1,0.8-0.8c0.1-1.9,0.5-3.6,2.2-4.7c1-0.6,2-0.8,3.2-0.7c0.3,0,0.5,0.1,0.4,0.5
				c0,0.1,0,0.2,0,0.3c0,0.5,0.1,1,0,1.5c-0.2,0.6-0.8,0.1-1.3,0.3c-1.3,0.3-2.3,2.1-1.9,3.4c0.1,0.3,0.3,0.2,0.4,0.2
				c0.8,0,1.5,0,2.3,0c0.4,0,0.4,0.1,0.5,0.5c0.1,2.1,0.1,2.1-2,2.1c-1.2,0-1.2,0-1.2,1.2c0,3.3,0,6.5,0,9.8c0,0.5-0.1,0.7-0.6,0.6
				c-0.6-0.1-1.5,0.2-1.9-0.1c-0.4-0.3-0.1-1.2-0.1-1.9C29.1,36.4,29.1,35.2,29.1,33.9z"/>
			<path class="st6" d="M21.6,29.4c0.9,0,1.8,0,2.8,0c0.5,0,0.8,0,0.5-0.6c0-0.1,0-0.2,0.1-0.3c0.5,1.1,0.5,1.2-0.7,1.2
				c-0.7,0-1.4,0-2.1,0C22,29.7,21.7,29.8,21.6,29.4z"/>
			<path class="st7" d="M20.5,25.5c-0.7,0.2-1.5,0.2-2.2,0C19,25.3,19.7,25.3,20.5,25.5z"/>
			<path class="st7" d="M21.2,25.6c-0.2,0.2-0.3,0.1-0.3-0.1C21,25.5,21.1,25.6,21.2,25.6z"/>
			<path class="st6" d="M20.2,28.6c0.2-0.2,0.2-0.1,0.3,0.1C20.4,28.6,20.3,28.6,20.2,28.6z"/>
			<path class="st2" d="M13.5,36.2c0.2,0,0.3,0.1,0.1,0.3C13.6,36.4,13.5,36.3,13.5,36.2z"/>
			<path class="st6" d="M20.7,28.7c0.1,0,0.1,0.1,0.2,0.1C20.9,28.8,20.8,28.7,20.7,28.7z"/>
			<path class="st2" d="M16.9,35.4c0-0.1-0.1-0.1-0.1-0.2C16.9,35.3,16.9,35.4,16.9,35.4z"/>
			<path class="st8" d="M39.2,20.9c0.6,0,1.1,0.3,1.2,0.9c0.1,0.6,0.5,0.5,0.9,0.5c0.4,0,0.6-0.1,0.8-0.5c0.2-0.8,0.8-1.1,1.7-0.9
				c0.7,0.1,0.8,0.7,0.8,1.3c0.1,0.6-0.2,1-0.5,1.5c-0.8,1-1.7,1.8-2.5,2.7c-0.3,0.3-0.4,0.2-0.6,0c-0.8-0.9-1.7-1.8-2.5-2.7
				c-0.4-0.5-0.6-1.1-0.5-1.8C38.1,21.2,38.4,20.9,39.2,20.9z"/>
		</g>
	</g>
</g>
</svg>
