<svg xmlns="http://www.w3.org/2000/svg" width="256" height="256" viewBox="0 0 100 100"><rect width="100" height="100" rx="20" fill="#072863"></rect><path d="M59.06 63.77L59.06 63.77Q59.06 71.31 53.59 75.53Q48.13 79.75 38.75 79.75L38.75 79.75Q28.59 79.75 23.13 77.13L23.13 77.13L23.13 70.72Q26.64 72.21 30.78 73.07Q34.92 73.93 38.98 73.93L38.98 73.93Q45.63 73.93 48.98 71.41Q52.34 68.89 52.34 64.39L52.34 64.39Q52.34 61.43 51.15 59.53Q49.96 57.64 47.17 56.04Q44.38 54.43 38.67 52.40L38.67 52.40Q30.70 49.55 27.29 45.64Q23.87 41.74 23.87 35.45L23.87 35.45Q23.87 28.85 28.83 24.94Q33.79 21.04 41.95 21.04L41.95 21.04Q50.47 21.04 57.62 24.16L57.62 24.16L55.55 29.94Q48.48 26.97 41.80 26.97L41.80 26.97Q36.52 26.97 33.55 29.24Q30.59 31.50 30.59 35.53L30.59 35.53Q30.59 38.50 31.68 40.39Q32.77 42.29 35.37 43.87Q37.97 45.45 43.32 47.36L43.32 47.36Q52.30 50.57 55.68 54.24Q59.06 57.91 59.06 63.77ZM76.25 36.15L76.25 78.96L69.77 78.96L69.77 36.15L76.25 36.15ZM69.22 24.55L69.22 24.55Q69.22 22.32 70.31 21.29Q71.41 20.25 73.05 20.25L73.05 20.25Q74.61 20.25 75.74 21.31Q76.88 22.36 76.88 24.55L76.88 24.55Q76.88 26.74 75.74 27.81Q74.61 28.89 73.05 28.89L73.05 28.89Q71.41 28.89 70.31 27.81Q69.22 26.74 69.22 24.55Z" fill="#ffffff"></path></svg>