<?xml version="1.0" encoding="utf-8"?>
<!-- Generator: Adobe Illustrator 22.0.0, SVG Export Plug-In . SVG Version: 6.00 Build 0)  -->
<svg version="1.1" id="Layer_1" xmlns="http://www.w3.org/2000/svg" xmlns:xlink="http://www.w3.org/1999/xlink" x="0px" y="0px"
	 viewBox="0 0 104 35" enable-background="new 0 0 104 35" xml:space="preserve">
<filter  filterUnits="objectBoundingBox" height="185.7%" id="filter-1" width="124.7%" x="-12.4%" y="-42.9%">
	<feOffset  dx="0" dy="2" in="SourceAlpha" result="shadowOffsetOuter1"></feOffset>
	<feGaussianBlur  in="shadowOffsetOuter1" result="shadowBlurOuter1" stdDeviation="2"></feGaussianBlur>
	
		<feColorMatrix  in="shadowBlurOuter1" result="shadowMatrixOuter1" type="matrix" values="0 0 0 0 0.847058824   0 0 0 0 0.866666667   0 0 0 0 0.890196078  0 0 0 1 0">
		</feColorMatrix>
	<feMerge>
		<feMergeNode  in="shadowMatrixOuter1"></feMergeNode>
		<feMergeNode  in="SourceGraphic"></feMergeNode>
	</feMerge>
</filter>
<title>GDPR compliant - sidebar full</title>
<desc>Created with Sketch.</desc>
<g id="Page-1">
	<g id="Artboard" transform="translate(-159.000000, -40.000000)">
		<g id="GDPR-compliant---sidebar-full" transform="translate(163.000000, 41.000000)" filter="url(#filter-1)">
			<g id="Group_1_">
				<polygon id="Shape_13_" fill="#DEA85A" points="12.5,2.2 13,3.7 14.5,3.7 13.2,4.6 13.7,6.1 12.5,5.2 11.3,6.1 11.8,4.6 
					10.6,3.7 12,3.7 				"/>
				<polygon id="Shape_12_" fill="#DEA85A" points="12.5,26.7 13,28.1 14.5,28.1 13.2,29.1 13.7,30.5 12.5,29.6 11.3,30.5 
					11.8,29.1 10.6,28.1 12,28.1 				"/>
				<polygon id="Shape_11_" fill="#DEA85A" points="18.6,4.4 19.1,5.9 20.6,5.9 19.4,6.8 19.8,8.3 18.6,7.4 17.4,8.3 17.9,6.8 
					16.7,5.9 18.2,5.9 				"/>
				<polygon id="Shape_10_" fill="#DEA85A" points="23.6,8.6 24.1,10.1 25.6,10.1 24.4,11 24.8,12.5 23.6,11.6 22.4,12.5 22.9,11 
					21.7,10.1 23.2,10.1 				"/>
				<polygon id="Shape_9_" fill="#DEA85A" points="23.6,20.5 24.1,22 25.6,22 24.4,23 24.8,24.4 23.6,23.5 22.4,24.4 22.9,23 
					21.7,22 23.2,22 				"/>
				<polygon id="Shape_8_" fill="#DEA85A" points="1.4,8.6 1.8,10.1 3.3,10.1 2.1,11 2.6,12.5 1.4,11.6 0.2,12.5 0.6,11 -0.6,10.1 
					0.9,10.1 				"/>
				<polygon id="Shape_7_" fill="#DEA85A" points="24.7,14.4 25.2,15.9 26.7,15.9 25.5,16.8 25.9,18.3 24.7,17.4 23.5,18.3 24,16.8 
					22.8,15.9 24.3,15.9 				"/>
				<polygon id="Shape_6_" fill="#DEA85A" points="0.3,14.4 0.7,15.9 2.2,15.9 1,16.8 1.5,18.3 0.3,17.4 -0.9,18.3 -0.5,16.8 
					-1.7,15.9 -0.2,15.9 				"/>
				<polygon id="Shape_5_" fill="#DEA85A" points="1.4,20.5 1.8,22 3.3,22 2.1,23 2.6,24.4 1.4,23.5 0.2,24.4 0.6,23 -0.6,22 
					0.9,22 				"/>
				<polygon id="Shape_4_" fill="#DEA85A" points="19.7,25.5 20.2,27 21.7,27 20.5,28 20.9,29.4 19.7,28.5 18.5,29.4 19,28 17.8,27 
					19.3,27 				"/>
				<polygon id="Shape_3_" fill="#DEA85A" points="6.4,4.4 6.9,5.9 8.3,5.9 7.1,6.8 7.6,8.3 6.4,7.4 5.2,8.3 5.6,6.8 4.4,5.9 
					5.9,5.9 				"/>
				<polygon id="Shape_2_" fill="#DEA85A" points="5.3,25.5 5.7,27 7.2,27 6,28 6.5,29.4 5.3,28.5 4.1,29.4 4.5,28 3.3,27 4.8,27 
									"/>
			</g>
			<path id="Shape_1_" fill="#FFFFFF" d="M15.7,15.5h-0.4v-1.3c0-1.6-1.2-2.8-2.7-2.8s-2.7,1.3-2.7,2.8v1.3H9.3
				c-0.5,0-0.9,0.4-0.9,0.9V20c0,0.5,0.4,0.9,0.9,0.9h6.4c0.5,0,0.9-0.4,0.9-0.9v-3.6C16.6,15.9,16.2,15.5,15.7,15.5z M13.8,15.5
				h-2.6v-1.3c0-0.7,0.6-1.3,1.3-1.3c0.7,0,1.3,0.6,1.3,1.3V15.5z"/>
			<text transform="matrix(1 0 0 1 34.7764 15.3633)" fill="#FFFFFF" font-family="'Raleway-Bold'" font-size="10.1233px">GDPR</text>
			<text transform="matrix(1 0 0 1 63.4131 15.3633)" fill="#FFFFFF" font-family="'Raleway-Bold'" font-size="10.1233px"> </text>
			<text transform="matrix(1 0 0 1 34.7764 26.5)" fill="#FFFFFF" font-family="'Raleway-Regular'" font-size="10.1233px">COMPLIANT</text>
		</g>
	</g>
</g>
</svg>
