<?xml version="1.0" encoding="UTF-8"?>
<svg width="584px" height="292px" viewBox="0 0 584 292" version="1.1" xmlns="http://www.w3.org/2000/svg" xmlns:xlink="http://www.w3.org/1999/xlink">
    <title>top - transformation engine</title>
    <defs>
        <polygon id="path-1" points="0 0.358972601 12.12042 0.358972601 12.12042 12.4589189 0 12.4589189"></polygon>
        <polygon id="path-3" points="0.278512 0.207648649 11.320192 0.207648649 11.320192 11.2305733 0.278512 11.2305733"></polygon>
    </defs>
    <g id="Page-1" stroke="none" stroke-width="1" fill="none" fill-rule="evenodd">
        <g id="Config-/-Package-creation-int-logic-process-1/2---General" transform="translate(-228.000000, -277.000000)">
            <g id="Group" transform="translate(-30.000000, -60.000000)">
                <g id="Integration-logic---Content" transform="translate(218.000000, 337.000000)">
                    <g id="top---transformation-engine" transform="translate(40.773438, 0.210938)">
                        <g id="End" transform="translate(357.000000, 71.000000)">
                            <circle id="Oval" stroke="#031739" stroke-width="1.3" cx="38.5" cy="29.5" r="14.5"></circle>
                            <g id="Icon---End-event" transform="translate(32.000000, 21.000000)" fill="#031739">
                                <path d="M8.48547648,16.4669282 C8.27955648,16.4669282 8.11107648,16.2994803 8.11107648,16.0931606 L8.11107648,11.6079498 C8.11107648,11.4016301 8.27955648,11.2341823 8.48547648,11.2341823 L12.9782765,11.2341823 C13.1856941,11.2341823 13.3526765,11.4016301 13.3526765,11.6079498 C13.3526765,11.8142695 13.1856941,11.9817174 12.9782765,11.9817174 L8.85987648,11.9817174 L8.85987648,16.0931606 C8.85987648,16.2994803 8.69289408,16.4669282 8.48547648,16.4669282" id="Fill-1"></path>
                                <path d="M1.4976,15.3456255 L8.1753984,15.3456255 L12.2294016,11.2984703 L12.2294016,1.49529453 L1.4976,1.49529453 L1.4976,15.3456255 Z M8.4854016,16.8406958 L0.7488,16.8406958 C0.3347136,16.8406958 0,16.5065476 0,16.0931606 L0,0.747759396 C0,0.334372466 0.3347136,0.000224260541 0.7488,0.000224260541 L12.9782016,0.000224260541 C13.392288,0.000224260541 13.7270016,0.334372466 13.7270016,0.747759396 L13.7270016,11.6079498 C13.7270016,11.8067942 13.6483776,11.9966681 13.5076032,12.1364572 L9.0148032,16.621668 C8.8747776,16.7622046 8.6845824,16.8406958 8.4854016,16.8406958 L8.4854016,16.8406958 Z" id="Fill-3"></path>
                                <path d="M6.35461632,8.90912374 C6.18314112,8.90912374 6.01690752,8.85006846 5.88212352,8.74092834 L4.00413312,7.21446159 C3.68439552,6.95431936 3.63572352,6.48337223 3.89630592,6.16267965 C4.15613952,5.84348215 4.62863232,5.79489237 4.95061632,6.05578213 L6.24529152,7.1083116 L9.20380032,3.45510739 C9.46363392,3.13441482 9.93313152,3.0828349 10.2566131,3.34447219 C10.5785971,3.60311935 10.6280179,4.07406649 10.3674355,4.39550659 L6.93643392,8.63178821 C6.81213312,8.78578044 6.63092352,8.88445508 6.43249152,8.90463853 C6.40703232,8.90762867 6.38082432,8.90912374 6.35461632,8.90912374" id="Fill-5"></path>
                            </g>
                            <g id="channel-missing" transform="translate(0.000000, 44.000000)" fill="#031739" font-family="Raleway-Regular, Raleway" font-size="10.4" font-weight="normal" letter-spacing="0.186666694">
                                <text id="Channel-name">
                                    <tspan x="0.1" y="10.2824324">Channel name</tspan>
                                </text>
                            </g>
                            <g id="icon---pen" transform="translate(50.000000, 1.000000)" fill="#031739">
                                <path d="M0.973250384,9.42685042 C1.86645287,9.43683812 2.73794407,9.45594503 3.56992072,9.51717398 L9.46453606,3.62269274 C9.22875144,3.01517991 8.86487022,2.45717133 8.40415663,1.99600004 C7.94300883,1.53439451 7.38502866,1.170929 6.77754676,0.93513238 L0.882497191,6.82961362 C0.943723029,7.6577244 0.963263191,8.53099696 0.973250384,9.42685042 M3.7362292,10.4 C3.7245051,10.4 3.71278101,10.3995658 3.70062268,10.3986973 C2.70667981,10.3166244 1.6380501,10.3009915 0.539024577,10.2910038 C0.302371511,10.2888325 0.11087793,10.0973292 0.109141027,9.86066409 C0.0987196073,8.75854287 0.083521704,7.6876875 0.00145302633,6.69977349 C-0.00896839306,6.57253885 0.0370595426,6.44747545 0.126944285,6.35715188 L6.35678195,0.126997005 C6.47315447,0.011487059 6.64380521,-0.0288979974 6.79795537,0.0210405131 C7.63080047,0.291142718 8.39938015,0.761867461 9.01815193,1.38197349 C9.63735793,2.00121102 10.1080587,2.76852709 10.3785814,3.6014146 C10.4293858,3.75687535 10.3881344,3.92710054 10.2726303,4.04304473 L4.04322685,10.2727654 C3.96115817,10.3548382 3.85086481,10.4 3.7362292,10.4" id="Fill-1"></path>
                                <path d="M10.1510321,5.2 C10.0868304,5.2 10.0236242,5.17560944 9.97485085,5.1273261 L6.57315999,1.72509253 C6.47561334,1.62753031 6.47561334,1.47023612 6.57315999,1.37317167 C6.67020896,1.27560944 6.82747807,1.27560944 6.92502472,1.37317167 L10.3272133,4.77490747 C10.4242622,4.87246969 10.4242622,5.02976388 10.3272133,5.1273261 C10.2784399,5.17560944 10.2142383,5.2 10.1510321,5.2" id="Fill-3"></path>
                                <path d="M4.9504068,10.4 C4.84529539,10.4 4.74815451,10.3332432 4.71378159,10.227628 C4.21562324,8.69521101 3.00460031,7.48362515 1.47226524,6.98593835 C1.34174775,6.94359263 1.26951479,6.80310447 1.31235641,6.67258 C1.35420171,6.54155736 1.49518052,6.46981872 1.62569801,6.51216444 C3.30897506,7.05867336 4.64105047,8.3903218 5.18802833,10.074187 C5.22987363,10.2047115 5.15863699,10.3451997 5.02712318,10.3880436 C5.00221527,10.3960145 4.97581287,10.4 4.9504068,10.4" id="Fill-5"></path>
                                <path d="M0.626434548,11.0923583 L2.03150886,11.1392698 C1.99693462,10.3583316 1.36949724,9.72475058 0.57655696,9.65797071 L0.626434548,11.0923583 Z M2.29166582,11.7 C2.28939866,11.7 2.28599791,11.7 2.28373075,11.7 L0.343039164,11.6348758 C0.193406402,11.6304606 0.0749471312,11.5140098 0.0698460143,11.3688601 L0.000130749948,9.4002335 C-0.00440357619,9.25287625 0.109521368,9.12814689 0.260287712,9.11545319 C0.34757349,9.1049671 0.390649589,9.1 0.437126432,9.1 C1.62965421,9.1 2.6,10.0448525 2.6,11.2066016 C2.6,11.2833156 2.59036456,11.3567183 2.57902874,11.4306729 C2.55805748,11.5669921 2.43222993,11.7 2.29166582,11.7 L2.29166582,11.7 Z" id="Fill-7"></path>
                            </g>
                            <text id="END" font-family="Raleway-Regular, Raleway" font-size="10.4" font-weight="normal" letter-spacing="0.186666694" fill="#031739">
                                <tspan x="24" y="10">END</tspan>
                            </text>
                        </g>
                        <line x1="214.650376" y1="100.75" x2="263.354317" y2="101.175488" id="Line-3" stroke="#979797" stroke-width="1.3" stroke-linecap="square"></line>
                        <line x1="324.650376" y1="100.75" x2="373.358517" y2="101.175524" id="Line-3" stroke="#979797" stroke-width="1.3" stroke-linecap="square"></line>
                        <g id="Start" transform="translate(144.000000, 71.000000)">
                            <circle id="Oval" stroke="#031739" stroke-width="1.3" cx="50.5" cy="29.5" r="14.5"></circle>
                            <g id="Icon---Start-event" transform="translate(43.000000, 21.000000)" fill="#031739">
                                <path d="M8.48547648,16.4669282 C8.27805888,16.4669282 8.11107648,16.2994803 8.11107648,16.0931606 L8.11107648,11.6079498 C8.11107648,11.4016301 8.27805888,11.2341823 8.48547648,11.2341823 L12.9782765,11.2341823 C13.1841965,11.2341823 13.3526765,11.4016301 13.3526765,11.6079498 C13.3526765,11.8142695 13.1841965,11.9817174 12.9782765,11.9817174 L8.85987648,11.9817174 L8.85987648,16.0931606 C8.85987648,16.2994803 8.69139648,16.4669282 8.48547648,16.4669282" id="Fill-1"></path>
                                <path d="M8.48547648,16.8406958 L0.74887488,16.8406958 C0.33478848,16.8406958 7.488e-05,16.5065476 7.488e-05,16.0931606 L7.488e-05,0.747759396 C7.488e-05,0.334372466 0.33478848,0.000224260541 0.74887488,0.000224260541 L12.9782765,0.000224260541 C13.3923629,0.000224260541 13.7270765,0.334372466 13.7270765,0.747759396 L13.7270765,3.78947986 C13.7270765,4.20286679 13.3923629,4.537015 12.9782765,4.537015 C12.5641901,4.537015 12.2294765,4.20286679 12.2294765,3.78947986 L12.2294765,1.49529453 L1.49767488,1.49529453 L1.49767488,15.3456255 L8.17547328,15.3456255 L12.2294765,11.2984703 L12.2294765,8.08780689 C12.2294765,7.67441996 12.5641901,7.34027175 12.9782765,7.34027175 C13.3923629,7.34027175 13.7270765,7.67441996 13.7270765,8.08780689 L13.7270765,11.6079498 C13.7270765,11.8067942 13.6484525,11.9966681 13.5076781,12.1364572 L9.01487808,16.621668 C8.87485248,16.7622046 8.68465728,16.8406958 8.48547648,16.8406958" id="Fill-3"></path>
                                <path d="M15.0930374,9.77783432 C14.9013446,9.77783432 14.7096518,9.70457588 14.5636358,9.55880653 C14.270855,9.26652029 14.270855,8.79407808 14.5636358,8.50179185 L17.1709574,5.89737943 L14.5636358,3.29296702 C14.270855,3.00142832 14.270855,2.52823858 14.5636358,2.23595234 C14.8564166,1.94441364 15.3296582,1.94441364 15.622439,2.23595234 L18.7591622,5.36887209 C19.051943,5.6604108 19.051943,6.13360054 18.7591622,6.42588678 L15.622439,9.55880653 C15.476423,9.70457588 15.2847302,9.77783432 15.0930374,9.77783432" id="Fill-5"></path>
                                <path d="M8.48547648,6.64536309 C8.07139008,6.64536309 7.73667648,6.31121489 7.73667648,5.89782796 C7.73667648,5.48518856 8.07139008,5.15029282 8.48547648,5.15029282 L17.3774765,5.14954529 C17.7915629,5.14954529 18.1262765,5.48369349 18.1262765,5.89708042 C18.1262765,6.30971982 17.7915629,6.64461556 17.3774765,6.64461556 L8.48547648,6.64536309 Z" id="Fill-7"></path>
                            </g>
                            <g id="channel-missing" transform="translate(0.000000, 43.000000)" fill="#031739" font-family="Raleway-Regular, Raleway" font-size="10.4" font-weight="normal" letter-spacing="0.186666694">
                                <text id="Channel-name">
                                    <tspan x="11.8" y="11.2824324">Channel name</tspan>
                                </text>
                            </g>
                            <g id="icon---pen" transform="translate(67.000000, 1.000000)" fill="#031739">
                                <path d="M0.973250384,9.42685042 C1.86645287,9.43683812 2.73794407,9.45594503 3.56992072,9.51717398 L9.46453606,3.62269274 C9.22875144,3.01517991 8.86487022,2.45717133 8.40415663,1.99600004 C7.94300883,1.53439451 7.38502866,1.170929 6.77754676,0.93513238 L0.882497191,6.82961362 C0.943723029,7.6577244 0.963263191,8.53099696 0.973250384,9.42685042 M3.7362292,10.4 C3.7245051,10.4 3.71278101,10.3995658 3.70062268,10.3986973 C2.70667981,10.3166244 1.6380501,10.3009915 0.539024577,10.2910038 C0.302371511,10.2888325 0.11087793,10.0973292 0.109141027,9.86066409 C0.0987196073,8.75854287 0.083521704,7.6876875 0.00145302633,6.69977349 C-0.00896839306,6.57253885 0.0370595426,6.44747545 0.126944285,6.35715188 L6.35678195,0.126997005 C6.47315447,0.011487059 6.64380521,-0.0288979974 6.79795537,0.0210405131 C7.63080047,0.291142718 8.39938015,0.761867461 9.01815193,1.38197349 C9.63735793,2.00121102 10.1080587,2.76852709 10.3785814,3.6014146 C10.4293858,3.75687535 10.3881344,3.92710054 10.2726303,4.04304473 L4.04322685,10.2727654 C3.96115817,10.3548382 3.85086481,10.4 3.7362292,10.4" id="Fill-1"></path>
                                <path d="M10.1510321,5.2 C10.0868304,5.2 10.0236242,5.17560944 9.97485085,5.1273261 L6.57315999,1.72509253 C6.47561334,1.62753031 6.47561334,1.47023612 6.57315999,1.37317167 C6.67020896,1.27560944 6.82747807,1.27560944 6.92502472,1.37317167 L10.3272133,4.77490747 C10.4242622,4.87246969 10.4242622,5.02976388 10.3272133,5.1273261 C10.2784399,5.17560944 10.2142383,5.2 10.1510321,5.2" id="Fill-3"></path>
                                <path d="M4.9504068,10.4 C4.84529539,10.4 4.74815451,10.3332432 4.71378159,10.227628 C4.21562324,8.69521101 3.00460031,7.48362515 1.47226524,6.98593835 C1.34174775,6.94359263 1.26951479,6.80310447 1.31235641,6.67258 C1.35420171,6.54155736 1.49518052,6.46981872 1.62569801,6.51216444 C3.30897506,7.05867336 4.64105047,8.3903218 5.18802833,10.074187 C5.22987363,10.2047115 5.15863699,10.3451997 5.02712318,10.3880436 C5.00221527,10.3960145 4.97581287,10.4 4.9504068,10.4" id="Fill-5"></path>
                                <path d="M0.626434548,11.0923583 L2.03150886,11.1392698 C1.99693462,10.3583316 1.36949724,9.72475058 0.57655696,9.65797071 L0.626434548,11.0923583 Z M2.29166582,11.7 C2.28939866,11.7 2.28599791,11.7 2.28373075,11.7 L0.343039164,11.6348758 C0.193406402,11.6304606 0.0749471312,11.5140098 0.0698460143,11.3688601 L0.000130749948,9.4002335 C-0.00440357619,9.25287625 0.109521368,9.12814689 0.260287712,9.11545319 C0.34757349,9.1049671 0.390649589,9.1 0.437126432,9.1 C1.62965421,9.1 2.6,10.0448525 2.6,11.2066016 C2.6,11.2833156 2.59036456,11.3567183 2.57902874,11.4306729 C2.55805748,11.5669921 2.43222993,11.7 2.29166582,11.7 L2.29166582,11.7 Z" id="Fill-7"></path>
                            </g>
                            <text id="START" font-family="Raleway-Regular, Raleway" font-size="10.4" font-weight="normal" letter-spacing="0.186666694" fill="#031739">
                                <tspan x="32" y="10">START</tspan>
                            </text>
                        </g>
                        <g id="Receiver" transform="translate(462.000000, 34.000000)">
                            <rect id="Rectangle" stroke="#D8D8D8" stroke-width="1.3" x="14.3" y="14.2758446" width="84.5" height="119.397973" rx="3.9"></rect>
                            <ellipse id="Oval" fill="#031739" cx="15.6" cy="15.5736486" rx="15.6" ry="15.5736486"></ellipse>
                            <g id="icon---receiver" transform="translate(10.400000, 9.084628)" fill="#FFFFFF">
                                <path d="M11.600472,12.0999982 C11.467352,12.0999982 11.334232,12.0491243 11.232832,11.9478956 L0.152152,0.885932959 C-0.050648,0.683475527 -0.050648,0.354871541 0.152152,0.151894986 C0.355472,-0.0505624459 0.684632,-0.0505624459 0.887432,0.151894986 L11.968112,11.2138576 C12.171432,11.4168342 12.171432,11.744919 11.968112,11.9478956 C11.866712,12.0491243 11.733592,12.0999982 11.600472,12.0999982" id="Fill-1"></path>
                                <path d="M11.752832,12.3392614 L1.751152,12.3392614 C1.463592,12.3392614 1.231152,12.1066949 1.231152,11.8201398 C1.231152,11.5335846 1.463592,11.3010181 1.751152,11.3010181 L11.232832,11.3010181 L11.232832,1.83535449 C11.232832,1.54828024 11.465272,1.31623287 11.752832,1.31623287 C12.040392,1.31623287 12.272832,1.54828024 12.272832,1.83535449 L12.272832,11.8201398 C12.272832,12.1066949 12.040392,12.3392614 11.752832,12.3392614" id="Fill-3"></path>
                            </g>
                        </g>
                        <text id="Name-displayed-here" font-family="Raleway-Regular, Raleway" font-size="9.1" font-weight="normal" letter-spacing="0.163333343" fill="#031739">
                            <tspan x="480" y="102">Name displayed</tspan>
                            <tspan x="480" y="113">here</tspan>
                        </text>
                        <text id="RECEIVER" font-family="Raleway-Regular, Raleway" font-size="10.4" font-weight="normal" letter-spacing="0.186666694" fill="#031739">
                            <tspan x="497" y="62">RECEIVER</tspan>
                        </text>
                        <line x1="418.647727" y1="100.5" x2="474.352273" y2="100.5" id="Line-2" stroke="#979797" stroke-width="1.3" stroke-linecap="square"></line>
                        <g id="Sender" transform="translate(35.000000, 34.000000)">
                            <rect id="Rectangle" stroke="#D8D8D8" stroke-width="1.3" x="0" y="14.2758446" width="84.5" height="119.397973" rx="3.9"></rect>
                            <ellipse id="Oval" fill="#031739" cx="83.2" cy="15.5736486" rx="15.6" ry="15.5736486"></ellipse>
                            <g id="icon---sender" transform="translate(76.700000, 9.084628)">
                                <g id="Group-3" transform="translate(0.000000, 0.311733)">
                                    <mask id="mask-2" fill="white">
                                        <use xlink:href="#path-1"></use>
                                    </mask>
                                    <g id="Clip-2"></g>
                                    <path d="M0.52,12.4589189 C0.38688,12.4589189 0.25376,12.408045 0.15236,12.3068163 C-0.05096,12.1038397 -0.05096,11.7757549 0.15236,11.5727783 L11.23304,0.510815676 C11.43584,0.308358243 11.765,0.308358243 11.96832,0.510815676 C12.17112,0.71379223 12.17112,1.04239622 11.96832,1.24485365 L0.88764,12.3068163 C0.78624,12.408045 0.65312,12.4589189 0.52,12.4589189" id="Fill-1" fill="#FFFFFF" mask="url(#mask-2)"></path>
                                </g>
                                <g id="Group-6" transform="translate(1.040000, 0.311733)">
                                    <mask id="mask-4" fill="white">
                                        <use xlink:href="#path-3"></use>
                                    </mask>
                                    <g id="Clip-5"></g>
                                    <path d="M10.800192,11.2305733 C10.512632,11.2305733 10.280192,10.9980069 10.280192,10.7114517 L10.280192,1.24578807 L0.798512,1.24578807 C0.510952,1.24578807 0.278512,1.01322158 0.278512,0.726666446 C0.278512,0.439592189 0.510952,0.207544824 0.798512,0.207544824 L10.800192,0.207544824 C11.087752,0.207544824 11.320192,0.439592189 11.320192,0.726666446 L11.320192,10.7114517 C11.320192,10.9980069 11.087752,11.2305733 10.800192,11.2305733" id="Fill-4" fill="#FFFFFF" mask="url(#mask-4)"></path>
                                </g>
                            </g>
                        </g>
                        <text id="Name-displayed-here" font-family="Raleway-Regular, Raleway" font-size="9.1" font-weight="normal" letter-spacing="0.163333343" fill="#031739">
                            <tspan x="40" y="102">Name displayed</tspan>
                            <tspan x="40" y="113">here</tspan>
                        </text>
                        <text id="SENDER" font-family="Raleway-Regular, Raleway" font-size="10.4" font-weight="normal" letter-spacing="0.186666694" fill="#031739">
                            <tspan x="40" y="62">SENDER</tspan>
                        </text>
                        <line x1="120.647727" y1="100.5" x2="176.352273" y2="100.5" id="Line-2" stroke="#979797" stroke-width="1.3" stroke-linecap="square"></line>
                        <rect id="Rectangle" stroke="#979797" stroke-width="0.5" x="0.2265625" y="0.7890625" width="582" height="290" rx="8"></rect>
                        <g id="Integration-logic---action-btn" transform="translate(280.000000, 72.000000)">
                            <circle id="Oval" fill="#22C2AE" cx="14.3" cy="29.9" r="14.3"></circle>
                            <text id="+" font-family="Raleway-Medium, Raleway" font-size="49.4" font-weight="400" letter-spacing="0.886666769" fill="#FFFFFF">
                                <tspan x="3.9" y="46">+</tspan>
                            </text>
                        </g>
                    </g>
                </g>
            </g>
        </g>
    </g>
</svg>