<?xml version="1.0" encoding="utf-8"?>
<!-- Generator: Adobe Illustrator 22.0.0, SVG Export Plug-In . SVG Version: 6.00 Build 0)  -->
<svg version="1.1" id="Layer_1" xmlns="http://www.w3.org/2000/svg" xmlns:xlink="http://www.w3.org/1999/xlink" x="0px" y="0px"
	 viewBox="0 0 100 100" enable-background="new 0 0 100 100" xml:space="preserve">
<g id="Page-1_1_">
	<g id="Artboard_1_" transform="translate(-52.000000, -228.000000)">
		<g id="icon---packages-active" transform="translate(52.000000, 228.000000)">
			<g id="Group-3" transform="translate(0.000000, 0.055275)">
				<defs>
					<filter id="Adobe_OpacityMaskFilter" filterUnits="userSpaceOnUse" x="8.6" y="7" width="81.5" height="84.2">
						<feColorMatrix  type="matrix" values="1 0 0 0 0  0 1 0 0 0  0 0 1 0 0  0 0 0 1 0"/>
					</filter>
				</defs>
				<mask maskUnits="userSpaceOnUse" x="8.6" y="7" width="81.5" height="84.2" id="mask-2_2_">
					<g filter="url(#Adobe_OpacityMaskFilter)">
						<polygon id="path-1_2_" fill="#FFFFFF" points="8.7,6.9 90,6.9 90,91.2 8.7,91.2 						"/>
					</g>
				</mask>
				<path id="Fill-1_1_" mask="url(#mask-2_2_)" fill="#243E8A" d="M15.8,66.7l33.6,17.6l33.5-17.6V31.5L49.3,13.9L15.8,31.5V66.7z
					 M49.3,91.2c-0.6,0-1.2-0.1-1.8-0.4L10.4,71.3c-1.1-0.6-1.8-1.6-1.8-2.8V29.6c0-1.2,0.7-2.2,1.8-2.8L47.6,7.4
					c1.1-0.6,2.5-0.6,3.6,0l37.1,19.4c1.1,0.6,1.8,1.6,1.8,2.8v38.9c0,1.2-0.7,2.2-1.8,2.8L51.1,90.8C50.6,91.1,50,91.2,49.3,91.2
					L49.3,91.2z"/>
			</g>
			<g id="Group-6" transform="translate(0.000000, 4.555275)">
				<defs>
					<filter id="Adobe_OpacityMaskFilter_1_" filterUnits="userSpaceOnUse" x="8.6" y="22" width="81.4" height="25.9">
						<feColorMatrix  type="matrix" values="1 0 0 0 0  0 1 0 0 0  0 0 1 0 0  0 0 0 1 0"/>
					</filter>
				</defs>
				<mask maskUnits="userSpaceOnUse" x="8.6" y="22" width="81.4" height="25.9" id="mask-4_2_">
					<g filter="url(#Adobe_OpacityMaskFilter_1_)">
						<polygon id="path-3_2_" fill="#FFFFFF" points="8.7,22 90,22 90,47.9 8.7,47.9 						"/>
					</g>
				</mask>
				<path id="Fill-4" mask="url(#mask-4_2_)" fill="#243E8A" d="M49.3,47.9c-0.6,0-1.2-0.1-1.8-0.4L10.4,28
					c-1.7-0.9-2.3-2.9-1.3-4.4s3.2-2.1,4.9-1.2l35.3,18.5l35.3-18.5c1.7-0.9,3.9-0.4,4.9,1.2c1,1.5,0.4,3.5-1.3,4.4L51.1,47.5
					C50.6,47.7,50,47.9,49.3,47.9"/>
			</g>
			<path id="Fill-7" fill="#243E8A" d="M49.3,91.3c-2,0-3.6-1.4-3.6-3.2V49.8c0-1.8,1.6-3.2,3.6-3.2s3.6,1.4,3.6,3.2V88
				C52.9,89.8,51.3,91.3,49.3,91.3"/>
		</g>
	</g>
</g>
</svg>
