<svg id="Layer_1" data-name="Layer 1" xmlns="http://www.w3.org/2000/svg" viewBox="0 0 207.9 264.96"><defs><style>.cls-1{fill:#fff;}.cls-2{fill:#072863;}</style></defs><title>logo_financial_times</title><path id="Financial-Times" class="cls-1" d="M22.94,218.84c0,2.14.59,2.39,3.06,2.47v.78H16.2v-.78c2-.08,2.61-.33,2.61-2.47V204.71c0-2.16-.59-2.41-2.56-2.5v-.77H33.52l.14,4.55H32.8c-.73-2.31-1.53-3.05-5.56-3.05H24.11c-.95,0-1.17.22-1.17,1.08v6.55h3.53c3.24,0,3.94-.61,4.33-2.75h.8v7.3h-.8c-.45-2.44-1.64-3.05-4.33-3.05H22.94v6.77Zm20.37,0c0,2.14.59,2.39,3.06,2.47v.78H36.15v-.78c2.47-.08,3-.33,3-2.47V204.71c0-2.16-.56-2.41-3-2.5v-.77H46.37v.77c-2.47.09-3.06.34-3.06,2.5Zm24.37-13.55c0-2-.55-2.83-2.8-3.08v-.77h7.3v.77c-2.25.25-2.8,1.09-2.8,3.08v17.32h-1l-14.1-16.32v12c0,2,.55,2.8,2.77,3.05v.8H49.73v-.8c2.27-.25,2.8-1.06,2.8-3.05V204.32a4,4,0,0,0-2.8-2.11v-.77h5.63l12.32,14.23V205.29Zm11,9.39,3.11-8.16,3,8.16Zm14.82,7.41v-.78c-1.55.05-1.94-.64-2.75-2.58l-7.27-17.79h-1L75,219.37a2.87,2.87,0,0,1-2.52,1.94v.78H79v-.78c-1.45,0-2.14-.28-2.14-1.31a18.5,18.5,0,0,1,1.19-3.8h7.47a18.61,18.61,0,0,1,1.25,3.8c0,1-.75,1.31-2.2,1.31v.78Zm20-16.8c0-2-.56-2.83-2.81-3.08v-.77h7.3v.77c-2.24.25-2.8,1.09-2.8,3.08v17.32h-1l-14.12-16.32v12c0,2,.55,2.8,2.8,3.05v.8h-7.3v-.8c2.25-.25,2.8-1.06,2.8-3.05V204.32a4,4,0,0,0-2.8-2.11v-.77h5.64l12.32,14.23V205.29Zm26.11,12a9.82,9.82,0,0,1-9.27,5.35c-6.74,0-10.71-4.41-10.71-11a10.75,10.75,0,0,1,10.91-10.65c2.16,0,5.22,1.22,5.69,1.22s.78-.33,1.28-1.22h1l.42,6.91h-.89c-1.22-3.19-3.39-5.53-7-5.53-4.89,0-7,5.28-7,9.27,0,5.56,2.39,9.3,7.55,9.3,4,0,6.22-3,7.16-4.27l.83.64Zm10,1.58c0,2.14.61,2.39,3.05,2.47v.78H142.54v-.78c2.47-.08,3.05-.33,3.05-2.47V204.71c0-2.16-.58-2.41-3.05-2.5v-.77h10.21v.77c-2.44.09-3.05.34-3.05,2.5Zm11.51-4.16,3.11-8.16,3.08,8.16ZM176,222.09v-.78c-1.55.05-1.94-.64-2.74-2.58L166,200.94h-1l-7.58,18.43a2.81,2.81,0,0,1-2.5,1.94v.78h6.55v-.78c-1.41,0-2.14-.28-2.14-1.31a18.52,18.52,0,0,1,1.2-3.8H168a18.61,18.61,0,0,1,1.25,3.8c0,1-.75,1.31-2.19,1.31v.78Zm1.81,0v-.8c2-.08,2.55-.33,2.55-2.47V204.71c0-2.16-.55-2.41-2.55-2.5v-.77h9.55v.77c-2.28.09-2.83.34-2.83,2.5v14.52c0,1.25.33,1.66,2.66,1.66,3.72,0,5.88-.66,7.66-4.33h.8l-1.41,5.55ZM20.72,254.67c2.36-.08,2.94-.33,2.94-2.47V236.3H21.11c-2.41,0-3.36,1-4,3.77h-.92l.5-5.27H34.79l.48,5.27h-.92c-.67-2.8-1.61-3.77-4-3.77H27.8v15.9c0,2.14.58,2.39,2.91,2.47v.78h-10v-.78Zm23.87-2.47c0,2.14.58,2.39,3,2.47v.78H37.4v-.78c2.47-.08,3.06-.33,3.06-2.47V238.07c0-2.16-.59-2.41-3.06-2.5v-.77H47.62v.77c-2.45.09-3,.34-3,2.5Zm24.76-17.4h7.1v.77c-2,.09-2.55.34-2.55,2.5V252.2c0,2.14.58,2.39,2.55,2.47v.78H67.16v-.78c2-.08,2.6-.33,2.6-2.47V237.66h-.05L62.8,255.72h-.95l-6.74-18.06H55v13.93c0,2,.55,2.86,2.8,3.08v.78h-7.3v-.78c2.28-.22,2.8-1.06,2.8-3.08v-14c0-1.44-.61-2-2.8-2v-.77h7.52l5.52,14.35Zm10,20.65v-.78c2-.08,2.56-.33,2.56-2.47V238.07c0-2.16-.58-2.41-2.56-2.5v-.77H96.66l.11,4.55h-.83c-.73-2.33-1.53-3-5.58-3H87.25c-1,0-1.17.22-1.17,1.08v6.55h3.53c3.22,0,3.91-.61,4.33-2.75h.77v7.3h-.77c-.45-2.44-1.67-3-4.33-3H86.08v7.16c0,1.25.36,1.66,4,1.66s5.91-.66,7.69-4.33h.78l-1.39,5.53ZM101.24,249h.8c.86,2.72,3.5,5.58,6.52,5.58a3.28,3.28,0,0,0,3.58-3.44c0-4.75-10.71-5.61-10.71-11.52,0-2.86,2.78-5.3,5.94-5.3s4.16,1.11,5.55,1.11c.58,0,1-.47,1.08-1.11h.81v6.58H114c-.83-3-3-5.19-5.77-5.19a2.83,2.83,0,0,0-3.16,2.91c0,4.22,10.71,4.33,10.71,11.6,0,3.28-2.66,5.77-6.38,5.77s-4.61-1.3-6-1.3c-.55,0-.91.39-1,1.05h-1.11V249Z"/><path id="FT-Grey" class="cls-1" d="M195.3,188.83H16.51V10.07H195.3V188.83Z"/><path id="FT" class="cls-2" d="M62.24,103.35c0,8.44,2.25,9.38,11.88,9.74v3.09H35.88v-3.09c8-.36,10.21-1.3,10.21-9.74V48.26c0-8.44-2.25-9.38-10-9.74V35.41h67.47L104,53.23h-3.33c-2.86-9-5.94-11.88-21.73-11.88H66.74c-3.66,0-4.5.86-4.5,4.16V71.05h6c12.6,0,15.32-2.25,16.87-10.69h3.08V88.87H85.14C83.47,79.37,78.73,77,68.27,77h-6v26.36ZM179.92,35.41H109.15l-1.64,17.85h4.08c2.58-8.75,6.38-11.91,14.9-11.91h10v62c0,8.44-2.25,9.38-11.38,9.74v3.09H164v-3.09c-9.13-.36-11.38-1.3-11.38-9.74v-62h10c8.52,0,12.32,3.16,14.93,11.91h4.06l-1.67-17.85Z"/></svg>