<?xml version="1.0" encoding="utf-8"?>
<!-- Generator: Adobe Illustrator 22.0.0, SVG Export Plug-In . SVG Version: 6.00 Build 0)  -->
<svg version="1.1" id="Layer_1" xmlns="http://www.w3.org/2000/svg" xmlns:xlink="http://www.w3.org/1999/xlink" x="0px" y="0px"
	 viewBox="0 0 100 100" enable-background="new 0 0 100 100" xml:space="preserve">
<g id="Symbols">
	<g id="Sidebar---Security-active" transform="translate(-36.000000, -448.000000)">
		<g id="Security-ACT." transform="translate(36.000000, 430.000000)">
			<g id="Icon---Security" transform="translate(0.000000, 18.000000)">
				<g id="Group-3_1_" transform="translate(0.000000, 0.810322)">
					<defs>
						<filter id="Adobe_OpacityMaskFilter" filterUnits="userSpaceOnUse" x="10.6" y="6.7" width="77.1" height="84.3">
							<feColorMatrix  type="matrix" values="1 0 0 0 0  0 1 0 0 0  0 0 1 0 0  0 0 0 1 0"/>
						</filter>
					</defs>
					<mask maskUnits="userSpaceOnUse" x="10.6" y="6.7" width="77.1" height="84.3" id="mask-2_1_">
						<g filter="url(#Adobe_OpacityMaskFilter)">
							<polygon id="path-1_1_" fill="#FFFFFF" points="10.6,6.7 87.7,6.7 87.7,91 10.6,91 							"/>
						</g>
					</mask>
					<path id="Fill-1" mask="url(#mask-2_1_)" fill="#243E8A" d="M15.7,15.8v41.9c0,1.4,1.6,5.3,2.6,6.2c7.3,6.8,24.4,22.6,31,22.6
						c6.6,0,23.6-15.8,30.8-22.5c1.1-1,2.7-5,2.7-6.3V22.8c0-4.1-3.1-7.9-7.5-8.9C55.7,9.9,35.1,10.4,15.7,15.8 M49.2,91
						c-8,0-21.5-11.9-34.6-24c-1.9-1.9-3.9-7-4-9.3V20.9c0-5,3.6-9.6,9-10.8c19.5-4.5,39.9-4.5,59.2,0c5.4,1.2,8.9,5.8,8.9,10.8
						v36.9c0,2.3-2.1,7.5-4,9.3C70.6,79.2,57.2,91,49.2,91"/>
				</g>
				<path id="Fill-4_1_" fill="#243E8A" d="M44.2,60.9c-1.4,0-2.7-0.5-3.6-1.4l-8.2-7.8c-1.9-1.8-1.8-4.7,0.2-6.4
					c2-1.7,5.2-1.7,7.1,0.2l4.3,4.1l14.6-16.1c1.8-1.9,4.9-2.2,7.1-0.6c2.1,1.6,2.5,4.5,0.7,6.4l-18.2,20c-0.9,1-2.3,1.6-3.7,1.7
					C44.4,60.9,44.3,60.9,44.2,60.9"/>
			</g>
		</g>
	</g>
</g>
</svg>
