<?xml version="1.0" encoding="utf-8"?>
<!-- Generator: Adobe Illustrator 22.0.0, SVG Export Plug-In . SVG Version: 6.00 Build 0)  -->
<svg version="1.1" id="Layer_1" xmlns="http://www.w3.org/2000/svg" xmlns:xlink="http://www.w3.org/1999/xlink" x="0px" y="0px"
	 viewBox="0 0 100 100" enable-background="new 0 0 100 100" xml:space="preserve">
<g id="Symbols">
	<g id="Header---Packages" transform="translate(-941.000000, -22.000000)">
		<g id="icon_notification" transform="translate(941.691194, 22.089845)">
			<path id="Fill-1" fill="#243E8A" d="M15.6,83.7c-0.5,0-0.9-0.1-1.4-0.4c-1.5-0.9-2.1-3-1.4-4.8l0.9-1.9c2.7-5.9,3.5-7.7,4.8-27.8
				c1.4-20,13.3-34,28.9-34h0h1.9c1.7,0,3.1,1.6,3.1,3.6s-1.4,3.6-3.1,3.6h-1.9h0c-12.5,0-21.7,11-22.8,27.4
				c-1.4,20.7-2.3,23.4-5.5,30.5l-0.8,1.9C17.8,83,16.7,83.7,15.6,83.7"/>
			<path id="Fill-3" fill="#243E8A" d="M80.7,83.7c-1.1,0-2.2-0.7-2.8-2l-0.8-1.9c-3.2-7.1-4.1-9.9-5.5-30.5
				C70.5,33,61.3,21.9,48.8,21.9h0h-1.9c-1.7,0-3.1-1.6-3.1-3.6s1.4-3.6,3.1-3.6h1.9h0c15.7,0,27.6,14,29,34
				c1.3,20.1,2.2,21.9,4.8,27.8l0.9,1.9c0.8,1.8,0.2,3.9-1.4,4.8C81.6,83.6,81.2,83.7,80.7,83.7"/>
			<g id="Group-7" transform="translate(0.000000, 21.526774)">
				<defs>
					<filter id="Adobe_OpacityMaskFilter" filterUnits="userSpaceOnUse" x="12" y="51.3" width="72.3" height="11">
						<feColorMatrix  type="matrix" values="1 0 0 0 0  0 1 0 0 0  0 0 1 0 0  0 0 0 1 0"/>
					</filter>
				</defs>
				<mask maskUnits="userSpaceOnUse" x="12" y="51.3" width="72.3" height="11" id="mask-2_2_">
					<g filter="url(#Adobe_OpacityMaskFilter)">
						<polygon id="path-1_2_" fill="#FFFFFF" points="12,51.3 84.3,51.3 84.3,62.3 12,62.3 						"/>
					</g>
				</mask>
				<path id="Fill-5" mask="url(#mask-2_2_)" fill="#243E8A" d="M81.2,62.3c-0.2,0-0.4,0-0.6-0.1c-21.5-5.1-43.4-5.1-64.9,0
					c-1.7,0.4-3.3-0.8-3.7-2.8c-0.3-1.9,0.7-3.8,2.4-4.2c22.4-5.3,45-5.3,67.4,0c1.7,0.4,2.7,2.3,2.4,4.2
					C83.9,61.1,82.7,62.3,81.2,62.3"/>
			</g>
			<g id="Group-10" transform="translate(9.589762, 0.541422)">
				<defs>
					<filter id="Adobe_OpacityMaskFilter_1_" filterUnits="userSpaceOnUse" x="35.5" y="6.4" width="6.2" height="14.3">
						<feColorMatrix  type="matrix" values="1 0 0 0 0  0 1 0 0 0  0 0 1 0 0  0 0 0 1 0"/>
					</filter>
				</defs>
				<mask maskUnits="userSpaceOnUse" x="35.5" y="6.4" width="6.2" height="14.3" id="mask-4_2_">
					<g filter="url(#Adobe_OpacityMaskFilter_1_)">
						<polygon id="path-3_2_" fill="#FFFFFF" points="35.5,6.4 41.7,6.4 41.7,20.7 35.5,20.7 						"/>
					</g>
				</mask>
				<path id="Fill-8" mask="url(#mask-4_2_)" fill="#243E8A" d="M38.6,20.7c-1.7,0-3.1-1.6-3.1-3.6V9.9c0-2,1.4-3.6,3.1-3.6
					c1.7,0,3.1,1.6,3.1,3.6v7.2C41.7,19.1,40.3,20.7,38.6,20.7"/>
			</g>
			<path id="Fill-11" fill="#243E8A" d="M48.2,90.5c-5.1,0-9.2-4.8-9.2-10.6c0-2,1.4-3.6,3.1-3.6c1.7,0,3.1,1.6,3.1,3.6
				c0,1.9,1.4,3.5,3.1,3.5c1.7,0,3.1-1.6,3.1-3.5c0-2,1.4-3.6,3.1-3.6s3.1,1.6,3.1,3.6C57.4,85.7,53.2,90.5,48.2,90.5"/>
		</g>
	</g>
</g>
</svg>
