<?xml version="1.0" encoding="utf-8"?>
<!-- Generator: Adobe Illustrator 22.0.0, SVG Export Plug-In . SVG Version: 6.00 Build 0)  -->
<svg version="1.1" id="Layer_1" xmlns="http://www.w3.org/2000/svg" xmlns:xlink="http://www.w3.org/1999/xlink" x="0px" y="0px"
	 viewBox="0 0 100 100" enable-background="new 0 0 100 100" xml:space="preserve">
<g id="Page-1">
	<g id="Artboard" transform="translate(-134.000000, -202.000000)">
		<g id="Icon---Workflows-active" transform="translate(134.000000, 202.000000)">
			<path id="Fill-1" fill="#243E8A" d="M78.8,36.6L78.8,36.6H59.4c-2,0-3.5-1.6-3.5-3.6s1.6-3.6,3.5-3.6l0,0h15.9V13.5
				c0-2,1.6-3.6,3.6-3.6l0,0c2,0,3.5,1.6,3.5,3.6V33C82.4,35,80.8,36.6,78.8,36.6"/>
			<path id="Fill-3" fill="#243E8A" d="M74.1,31c-0.9,0-1.9-0.4-2.5-1.1c-4.9-5.1-11.6-8-18.7-8.1h-0.4c-7,0-13.5,2.7-18.5,7.6
				c-1.4,1.4-3.7,1.3-5-0.1c-1.4-1.4-1.3-3.7,0.1-5c6.5-6.3,15-9.7,23.9-9.6c9,0.1,17.4,3.8,23.7,10.3c1.4,1.4,1.3,3.7-0.1,5
				C75.8,30.7,75,31,74.1,31"/>
			<g id="Group-7" transform="translate(0.000000, 4.022300)">
				<defs>
					<filter id="Adobe_OpacityMaskFilter" filterUnits="userSpaceOnUse" x="4.2" y="26.2" width="33.6" height="24.1">
						<feColorMatrix  type="matrix" values="1 0 0 0 0  0 1 0 0 0  0 0 1 0 0  0 0 0 1 0"/>
					</filter>
				</defs>
				<mask maskUnits="userSpaceOnUse" x="4.2" y="26.2" width="33.6" height="24.1" id="mask-2_1_">
					<g filter="url(#Adobe_OpacityMaskFilter)">
						<polygon id="path-1_1_" fill="#FFFFFF" points="4.2,26.2 37.8,26.2 37.8,50.3 4.2,50.3 						"/>
					</g>
				</mask>
				<path id="Fill-5" mask="url(#mask-2_1_)" fill="#243E8A" d="M34.3,50.3c-1.2,0-2.4-0.6-3.1-1.8l-7.9-13.8L9.5,42.6
					c-1.7,1-3.9,0.4-4.8-1.3c-1-1.7-0.4-3.9,1.3-4.9l16.8-9.7c1.7-1,3.9-0.4,4.8,1.3l9.7,16.9c1,1.7,0.4,3.9-1.3,4.9
					C35.5,50.1,34.9,50.3,34.3,50.3"/>
			</g>
			<path id="Fill-8" fill="#243E8A" d="M42.9,81.7c-0.3,0-0.7,0-1-0.1c-8.7-2.5-15.8-8.2-20.2-16.1s-5.4-17-3-25.7
				c0.5-1.9,2.5-3,4.4-2.5s3,2.5,2.4,4.4c-1.9,6.9-1.1,14.1,2.4,20.3s9.1,10.7,16,12.7c1.9,0.5,3,2.5,2.4,4.4
				C45.8,80.7,44.4,81.7,42.9,81.7"/>
			<path id="Fill-10" fill="#243E8A" d="M69.1,94c-0.6,0-1.2-0.2-1.8-0.5l-16.8-9.8c-1.7-1-2.3-3.2-1.3-4.9L59,62
				c1-1.7,3.2-2.3,4.9-1.3c1.7,1,2.3,3.2,1.3,4.9l-8,13.8l13.7,8c1.7,1,2.3,3.2,1.3,4.9C71.5,93.4,70.4,94,69.1,94"/>
			<g id="Group-14" transform="translate(10.986957, 5.605633)">
				<defs>
					<filter id="Adobe_OpacityMaskFilter_1_" filterUnits="userSpaceOnUse" x="45.1" y="33.5" width="29.9" height="43.8">
						<feColorMatrix  type="matrix" values="1 0 0 0 0  0 1 0 0 0  0 0 1 0 0  0 0 0 1 0"/>
					</filter>
				</defs>
				<mask maskUnits="userSpaceOnUse" x="45.1" y="33.5" width="29.9" height="43.8" id="mask-4_1_">
					<g filter="url(#Adobe_OpacityMaskFilter_1_)">
						<polygon id="path-3_1_" fill="#FFFFFF" points="45.1,33.4 74.9,33.4 74.9,77.3 45.1,77.3 						"/>
					</g>
				</mask>
				<path id="Fill-12" mask="url(#mask-4_1_)" fill="#243E8A" d="M48.6,77.3c-1.6,0-3-1.1-3.4-2.7c-0.5-1.9,0.7-3.8,2.6-4.3
					c6.9-1.7,12.7-6.1,16.3-12.2c3.6-6.1,4.7-13.3,2.9-20.2c-0.5-1.9,0.7-3.8,2.6-4.3s3.8,0.7,4.3,2.6c2.2,8.8,0.9,17.9-3.7,25.6
					c-4.7,7.7-12,13.2-20.7,15.4C49.2,77.2,48.9,77.3,48.6,77.3"/>
			</g>
		</g>
	</g>
</g>
</svg>
